<?xml version="1.0" standalone="no"?>
<!DOCTYPE svg PUBLIC "-//W3C//DTD SVG 20010904//EN"
 "http://www.w3.org/TR/2001/REC-SVG-20010904/DTD/svg10.dtd">
<svg version="1.0" xmlns="http://www.w3.org/2000/svg"
 width="387.000000pt" height="436.000000pt" viewBox="0 0 387.000000 436.000000"
 preserveAspectRatio="xMidYMid meet">
<metadata>
Created by potrace 1.16, written by Peter Selinger 2001-2019
</metadata>
<g transform="translate(0.000000,436.000000) scale(0.100000,-0.100000)"
fill="#000000" stroke="none">
<path d="M1390 4350 c-372 -22 -824 -88 -1045 -151 -152 -44 -235 -81 -303
-136 l-42 -34 0 -467 1 -467 188 -1377 c160 -1174 191 -1381 207 -1399 116
-131 521 -245 1084 -305 128 -13 218 -15 511 -10 401 7 498 14 747 56 370 63
639 156 731 254 22 23 35 110 212 1403 l188 1378 1 461 0 461 -44 41 c-53 49
-113 80 -221 115 -216 70 -510 122 -925 163 -189 18 -1059 28 -1290 14z m1170
-130 c536 -41 977 -126 1153 -223 l37 -21 0 -417 0 -417 -170 -1249 c-94 -686
-178 -1302 -187 -1368 -10 -77 -22 -127 -32 -139 -48 -56 -284 -136 -556 -190
-368 -73 -1014 -97 -1395 -51 -391 46 -701 123 -865 213 l-50 27 -187 1370
-187 1370 0 426 -1 425 38 21 c191 108 716 200 1322 233 207 11 887 5 1080
-10z"/>
</g>
</svg>
