<?xml version="1.0" standalone="no"?>
<!DOCTYPE svg PUBLIC "-//W3C//DTD SVG 20010904//EN"
 "http://www.w3.org/TR/2001/REC-SVG-20010904/DTD/svg10.dtd">
<svg version="1.0" xmlns="http://www.w3.org/2000/svg"
 width="350.000000pt" height="423.000000pt" viewBox="0 0 350.000000 423.000000"
 preserveAspectRatio="xMidYMid meet">
<metadata>
Created by potrace 1.16, written by Peter Selinger 2001-2019
</metadata>
<g transform="translate(0.000000,423.000000) scale(0.100000,-0.100000)"
fill="#000000" stroke="none">
<path d="M1530 4223 c-307 -13 -723 -88 -920 -163 -100 -39 -184 -93 -210
-136 -16 -25 -23 -57 -27 -114 l-6 -79 -66 -22 c-93 -30 -199 -83 -245 -123
-38 -31 -40 -37 -47 -107 -10 -98 -10 -3015 0 -3103 7 -65 10 -72 48 -106 114
-101 401 -185 828 -242 158 -21 204 -23 670 -22 512 0 573 4 840 45 339 53
592 139 681 230 38 39 39 42 44 126 l5 87 95 36 c116 43 209 99 250 148 l30
37 0 1475 c-1 1442 -5 1686 -31 1743 -17 38 -145 107 -280 151 -197 64 -514
118 -804 136 -151 9 -682 11 -855 3z m795 -123 c193 -13 321 -27 470 -51 233
-38 501 -121 549 -169 21 -21 21 -21 24 -1584 l3 -1563 -73 -36 c-71 -35 -152
-67 -169 -67 -5 0 -9 596 -9 1373 0 754 -3 1410 -7 1456 -6 81 -8 86 -44 122
-176 176 -849 290 -1629 276 -330 -6 -513 -21 -768 -62 -84 -14 -157 -25 -162
-25 -15 0 -12 73 4 96 57 81 486 188 896 223 69 6 141 13 160 15 85 7 619 5
755 -4z m-485 -370 c536 -26 960 -110 1127 -223 l33 -22 0 -1557 0 -1557 -30
-21 c-119 -85 -434 -164 -823 -206 -230 -26 -975 -26 -1182 -1 -304 37 -539
86 -683 144 -70 27 -142 68 -154 87 -4 6 -8 707 -8 1558 l0 1547 33 25 c142
109 592 201 1094 225 245 12 363 12 593 1z"/>
<path d="M230 3309 c0 -40 357 -122 725 -166 125 -15 227 -18 620 -17 447 1
480 2 665 27 323 43 579 100 635 141 41 30 2 28 -137 -7 -399 -100 -740 -133
-1287 -124 -455 7 -751 41 -1067 123 -146 37 -154 39 -154 23z"/>
</g>
</svg>
