<?xml version="1.0" standalone="no"?>
<!DOCTYPE svg PUBLIC "-//W3C//DTD SVG 20010904//EN"
 "http://www.w3.org/TR/2001/REC-SVG-20010904/DTD/svg10.dtd">
<svg version="1.0" xmlns="http://www.w3.org/2000/svg"
 width="336.000000pt" height="436.000000pt" viewBox="0 0 336.000000 436.000000"
 preserveAspectRatio="xMidYMid meet">
<metadata>
Created by potrace 1.16, written by Peter Selinger 2001-2019
</metadata>
<g transform="translate(0.000000,436.000000) scale(0.100000,-0.100000)"
fill="#000000" stroke="none">
<path d="M185 4331 c-59 -34 -135 -112 -164 -169 l-21 -41 1 -1843 c0 -1014 4
-1895 8 -1960 7 -99 12 -123 35 -161 27 -48 86 -101 146 -133 34 -18 89 -19
1482 -22 l1447 -3 49 25 c62 31 123 91 161 158 l31 53 0 1939 0 1938 -36 69
c-39 74 -77 110 -161 153 l-52 26 -1438 0 -1438 0 -50 -29z m2909 -103 c61
-19 120 -83 136 -148 10 -42 13 -353 12 -1469 0 -1408 0 -1416 -21 -1482 -26
-83 -79 -144 -160 -188 l-60 -32 -1328 3 -1328 3 -50 27 c-64 34 -118 90 -147
153 l-23 50 -3 1476 -3 1477 34 43 c18 24 50 56 72 71 l40 27 1394 1 c1075 0
1403 -3 1435 -12z m-2809 -3329 l50 -24 1337 -3 1338 -3 62 33 c34 18 86 57
114 86 29 28 54 52 56 52 3 0 3 -174 0 -387 -5 -382 -5 -388 -28 -424 -12 -20
-42 -53 -65 -73 l-43 -36 -1421 2 c-1303 3 -1422 4 -1450 20 -57 31 -94 80
-105 137 -6 30 -10 210 -10 408 l0 354 58 -59 c31 -32 80 -69 107 -83z"/>
<path d="M2174 3841 c-48 -29 -54 -61 -54 -295 l0 -211 -173 -173 -172 -172
-633 0 c-347 0 -632 -4 -632 -8 0 -4 24 -31 53 -60 l53 -52 609 0 610 0 190
190 190 190 230 0 231 0 32 33 32 33 0 232 0 232 -36 40 -36 40 -232 0 c-209
0 -234 -2 -262 -19z m444 -283 l2 -188 -190 0 -190 0 0 185 0 185 163 3 c89 1
173 3 187 2 l25 0 3 -187z"/>
<path d="M2183 2850 c-42 -17 -63 -67 -63 -152 l0 -78 -810 0 c-445 0 -810 -4
-810 -8 0 -4 24 -31 53 -60 l52 -52 755 -2 755 -3 5 -86 c5 -93 23 -133 66
-149 14 -6 130 -10 258 -10 l232 0 32 33 32 33 0 235 0 235 -38 37 -38 37
-229 -1 c-127 0 -240 -4 -252 -9z m435 -292 l2 -188 -190 0 -190 0 0 185 0
184 143 4 c78 2 162 3 187 3 l45 -1 3 -187z"/>
<path d="M521 2223 c7 -10 31 -37 53 -60 l40 -43 456 0 455 0 173 -173 172
-172 0 -215 c0 -185 2 -220 18 -250 28 -57 42 -60 303 -60 l237 0 31 35 31 36
0 232 0 233 -37 36 -38 36 -235 6 -235 7 -185 184 -185 185 -534 0 c-506 0
-533 -1 -520 -17z m1847 -665 l2 -188 -190 0 -190 0 0 185 0 184 128 4 c70 2
154 3 187 3 l60 -1 3 -187z"/>
<path d="M455 606 c-44 -19 -85 -72 -85 -107 0 -35 20 -77 49 -103 24 -22 28
-10 6 18 -24 32 -18 62 20 95 33 29 38 30 67 18 17 -7 41 -25 52 -41 l21 -27
-22 -41 -22 -40 21 14 c26 17 58 75 58 103 0 11 -9 34 -20 52 -35 58 -94 82
-145 59z"/>
</g>
</svg>
