<?xml version="1.0" standalone="no"?>
<!DOCTYPE svg PUBLIC "-//W3C//DTD SVG 20010904//EN"
 "http://www.w3.org/TR/2001/REC-SVG-20010904/DTD/svg10.dtd">
<svg version="1.0" xmlns="http://www.w3.org/2000/svg"
 width="409.000000pt" height="409.000000pt" viewBox="0 0 409.000000 409.000000"
 preserveAspectRatio="xMidYMid meet">
<metadata>
Created by potrace 1.16, written by Peter Selinger 2001-2019
</metadata>
<g transform="translate(0.000000,409.000000) scale(0.100000,-0.100000)"
fill="#000000" stroke="none">
<path d="M2858 4081 c-54 -11 -86 -36 -97 -78 -6 -20 -13 -228 -17 -467 l-6
-431 -247 -247 -246 -248 -1122 0 -1123 0 0 -70 0 -70 1158 0 1159 0 271 279
271 278 418 5 c454 5 455 5 497 61 20 28 21 40 24 470 l3 442 -34 33 c-26 25
-47 35 -93 42 -67 11 -759 12 -816 1z m802 -521 l0 -390 -385 0 -385 0 0 390
0 390 385 0 385 0 0 -390z"/>
<path d="M3145 2531 c-41 -10 -66 -25 -90 -51 -17 -18 -19 -41 -23 -195 l-5
-175 -1513 0 -1514 0 0 -70 0 -70 1515 0 1515 0 0 -170 c0 -208 10 -261 53
-292 32 -23 33 -23 478 -26 l447 -3 35 42 c27 31 37 54 42 94 4 29 5 226 3
438 -3 371 -4 387 -24 413 -11 15 -32 37 -47 48 -25 19 -45 20 -434 22 -225 2
-421 0 -438 -5z m795 -521 l0 -390 -385 0 -385 0 0 390 0 390 385 0 385 0 0
-390z"/>
<path d="M0 1550 l0 -70 868 0 867 0 257 -257 256 -258 4 -435 c5 -477 3 -464
66 -507 25 -16 59 -18 409 -21 231 -2 409 0 450 7 60 9 72 14 101 48 l33 38
-3 435 c-3 396 -5 438 -21 463 -40 62 -28 60 -502 65 l-433 5 -278 278 -279
279 -897 0 -898 0 0 -70z m3170 -1015 l0 -385 -390 0 -390 0 0 288 c0 359 7
469 29 475 9 3 181 5 384 6 l367 1 0 -385z"/>
</g>
</svg>
