<?xml version="1.0" standalone="no"?>
<!DOCTYPE svg PUBLIC "-//W3C//DTD SVG 20010904//EN"
 "http://www.w3.org/TR/2001/REC-SVG-20010904/DTD/svg10.dtd">
<svg version="1.0" xmlns="http://www.w3.org/2000/svg"
 width="425.000000pt" height="408.000000pt" viewBox="0 0 425.000000 408.000000"
 preserveAspectRatio="xMidYMid meet">
<metadata>
Created by potrace 1.16, written by Peter Selinger 2001-2019
</metadata>
<g transform="translate(0.000000,408.000000) scale(0.100000,-0.100000)"
fill="#000000" stroke="none">
<path d="M308 4071 c-176 -6 -176 -6 -220 -36 -24 -17 -52 -48 -63 -70 -20
-39 -20 -63 -23 -1078 l-3 -1039 27 -36 c33 -45 58 -67 106 -92 36 -19 60 -20
580 -20 299 0 560 -3 581 -6 45 -8 45 -6 12 -173 -28 -137 -71 -243 -124 -303
-30 -35 -59 -50 -113 -62 -56 -12 -68 -39 -68 -148 l0 -98 626 0 627 0 -5 106
c-5 113 -12 129 -63 139 -11 2 -33 7 -50 10 -40 9 -105 78 -138 149 -32 67
-72 223 -82 319 l-7 66 653 3 654 3 48 28 c26 15 60 47 75 69 l27 42 0 1051 0
1052 -28 36 c-15 20 -49 49 -75 64 l-47 28 -1365 1 c-751 0 -1445 -2 -1542 -5z
m2917 -96 c20 -8 40 -26 48 -42 9 -22 12 -252 12 -1028 0 -550 -4 -1017 -8
-1038 -5 -24 -18 -43 -35 -55 -24 -16 -121 -17 -1553 -20 l-1528 -3 -31 28
c-28 25 -33 37 -40 103 -11 93 -12 1897 -1 1963 8 51 40 93 75 100 11 2 697 5
1524 6 1293 1 1507 -1 1537 -14z m-1739 -2292 c12 -39 34 -69 65 -91 27 -19
43 -23 81 -19 62 5 95 29 118 83 16 36 24 44 45 44 30 0 29 2 44 -111 24 -183
81 -339 156 -426 l37 -43 -80 0 c-54 0 -83 -4 -91 -13 -6 -8 -8 -17 -4 -20 3
-4 73 -7 154 -7 l149 0 6 -25 c12 -49 6 -51 -163 -58 -197 -9 -789 -7 -863 1
-53 7 -55 8 -58 39 -4 41 2 42 173 46 108 2 130 5 130 17 0 12 -18 16 -88 18
l-88 3 32 36 c73 84 150 300 165 467 l7 76 34 0 c23 0 35 -5 39 -17z m237 11
c12 -12 -23 -64 -53 -79 -38 -20 -58 -19 -97 5 -41 24 -61 59 -42 71 16 10
182 12 192 3z"/>
<path d="M416 3820 c-101 -7 -112 -9 -132 -33 -16 -18 -24 -45 -29 -89 -3 -35
-5 -423 -3 -863 2 -602 6 -805 15 -821 7 -12 25 -30 40 -40 27 -18 71 -19
1264 -22 717 -2 1290 1 1364 7 127 9 130 9 157 40 l29 32 -3 859 c-3 850 -3
859 -24 886 -11 15 -34 32 -50 38 -35 12 -2462 17 -2628 6z m2636 -58 l23 -23
3 -846 3 -846 -28 -29 -27 -28 -1230 1 c-1311 1 -1455 4 -1484 32 -16 17 -17
75 -20 865 l-3 848 23 22 c31 28 17 28 1515 27 l1202 0 23 -23z"/>
<path d="M150 674 l-25 -26 0 -299 c0 -297 0 -299 23 -321 l23 -23 1516 -3
1516 -3 24 22 23 22 0 309 0 308 -27 17 c-26 17 -111 18 -1538 21 l-1511 3
-24 -27z m3002 -22 c10 -10 14 -80 16 -292 l3 -280 -1481 0 -1480 0 0 278 c0
152 4 282 8 289 12 18 78 19 1554 19 1107 -1 1369 -3 1380 -14z"/>
<path d="M370 580 l0 -40 65 0 65 0 0 40 0 40 -65 0 -65 0 0 -40z"/>
<path d="M620 580 l0 -40 65 0 65 0 0 40 0 40 -65 0 -65 0 0 -40z"/>
<path d="M870 580 l0 -40 65 0 65 0 0 40 0 40 -65 0 -65 0 0 -40z"/>
<path d="M1120 580 l0 -40 65 0 65 0 0 40 0 40 -65 0 -65 0 0 -40z"/>
<path d="M1370 580 l0 -40 65 0 65 0 0 40 0 40 -65 0 -65 0 0 -40z"/>
<path d="M1620 580 l0 -40 65 0 65 0 0 40 0 40 -65 0 -65 0 0 -40z"/>
<path d="M1870 580 l0 -40 65 0 65 0 0 40 0 40 -65 0 -65 0 0 -40z"/>
<path d="M2120 580 l0 -40 65 0 65 0 0 40 0 40 -65 0 -65 0 0 -40z"/>
<path d="M2370 580 l0 -40 65 0 65 0 0 40 0 40 -65 0 -65 0 0 -40z"/>
<path d="M2620 580 l0 -40 65 0 65 0 0 40 0 40 -65 0 -65 0 0 -40z"/>
<path d="M2870 580 l0 -40 65 0 65 0 0 40 0 40 -65 0 -65 0 0 -40z"/>
<path d="M370 410 l0 -40 125 0 125 0 0 40 0 40 -125 0 -125 0 0 -40z"/>
<path d="M750 410 l0 -40 60 0 60 0 0 40 0 40 -60 0 -60 0 0 -40z"/>
<path d="M1000 410 l0 -40 60 0 60 0 0 40 0 40 -60 0 -60 0 0 -40z"/>
<path d="M1250 410 l0 -40 60 0 60 0 0 40 0 40 -60 0 -60 0 0 -40z"/>
<path d="M1500 410 l0 -40 60 0 60 0 0 40 0 40 -60 0 -60 0 0 -40z"/>
<path d="M1750 410 l0 -40 60 0 60 0 0 40 0 40 -60 0 -60 0 0 -40z"/>
<path d="M2000 410 l0 -40 60 0 60 0 0 40 0 40 -60 0 -60 0 0 -40z"/>
<path d="M2250 410 l0 -40 60 0 60 0 0 40 0 40 -60 0 -60 0 0 -40z"/>
<path d="M2500 410 l0 -40 60 0 60 0 0 40 0 40 -60 0 -60 0 0 -40z"/>
<path d="M2750 410 l0 -40 125 0 125 0 0 40 0 40 -125 0 -125 0 0 -40z"/>
<path d="M388 279 c-23 -13 -24 -65 -2 -73 9 -3 38 -6 65 -6 l49 0 0 45 0 45
-47 0 c-27 0 -56 -5 -65 -11z"/>
<path d="M638 279 c-23 -13 -24 -65 -2 -73 9 -3 38 -6 65 -6 l49 0 0 45 0 45
-47 0 c-27 0 -56 -5 -65 -11z"/>
<path d="M888 279 c-23 -13 -24 -65 -2 -73 9 -3 38 -6 65 -6 l49 0 0 45 0 45
-47 0 c-27 0 -56 -5 -65 -11z"/>
<path d="M1127 283 c-4 -3 -7 -21 -7 -38 0 -30 3 -33 38 -39 20 -3 274 -6 565
-6 l527 0 0 45 0 45 -558 0 c-307 0 -562 -3 -565 -7z"/>
<path d="M2388 279 c-23 -13 -24 -65 -2 -73 9 -3 38 -6 65 -6 l49 0 0 45 0 45
-47 0 c-27 0 -56 -5 -65 -11z"/>
<path d="M2638 279 c-23 -13 -24 -65 -2 -73 9 -3 38 -6 65 -6 l49 0 0 45 0 45
-47 0 c-27 0 -56 -5 -65 -11z"/>
<path d="M2888 279 c-23 -13 -24 -65 -2 -73 9 -3 38 -6 65 -6 l49 0 0 45 0 45
-47 0 c-27 0 -56 -5 -65 -11z"/>
<path d="M3723 515 c-76 -21 -124 -48 -166 -94 -82 -91 -67 -216 33 -275 32
-19 55 -21 240 -24 239 -4 297 1 341 31 56 38 74 72 74 137 0 49 -5 65 -30
102 -37 52 -110 103 -178 123 -64 19 -243 19 -314 0z m108 -64 c9 -45 34 -69
57 -55 15 10 23 28 39 83 5 19 76 8 144 -22 94 -42 152 -125 135 -193 -12 -45
-66 -91 -117 -99 -24 -4 -137 -5 -250 -3 -177 3 -209 5 -232 21 -34 22 -67 74
-67 106 0 37 50 119 86 142 48 29 135 58 169 56 25 -2 30 -7 36 -36z"/>
</g>
</svg>
