<?xml version="1.0" standalone="no"?>
<!DOCTYPE svg PUBLIC "-//W3C//DTD SVG 20010904//EN"
 "http://www.w3.org/TR/2001/REC-SVG-20010904/DTD/svg10.dtd">
<svg version="1.0" xmlns="http://www.w3.org/2000/svg"
 width="351.000000pt" height="451.000000pt" viewBox="0 0 351.000000 451.000000"
 preserveAspectRatio="xMidYMid meet">
<metadata>
Created by potrace 1.16, written by Peter Selinger 2001-2019
</metadata>
<g transform="translate(0.000000,451.000000) scale(0.100000,-0.100000)"
fill="#000000" stroke="none">
<path d="M150 4481 c-54 -33 -102 -86 -130 -142 -21 -39 -21 -43 -18 -2092 l3
-2052 27 -46 c31 -52 71 -89 132 -122 l41 -22 1416 -3 c1512 -4 1693 0 1753
37 43 27 90 79 116 131 20 39 20 57 20 2087 l0 2048 -30 51 c-32 56 -71 93
-134 127 l-41 22 -1555 2 -1555 3 -45 -29z m3153 -134 c15 -9 35 -29 44 -44
17 -26 18 -114 18 -1588 0 -858 -3 -1572 -8 -1587 -9 -35 -61 -94 -101 -116
-29 -16 -135 -17 -1466 -17 -789 0 -1460 4 -1491 8 -45 7 -62 15 -96 48 -22
21 -44 51 -48 67 -5 15 -10 734 -12 1597 l-4 1570 36 35 c26 25 48 36 83 41
26 4 715 7 1532 6 1401 -2 1487 -3 1513 -20z m-3110 -3378 c41 -29 51 -31 185
-40 196 -14 2824 -6 2874 8 21 6 51 23 69 37 17 14 35 26 40 26 5 0 9 -156 9
-384 l0 -383 -44 -41 -43 -40 -224 -7 c-123 -4 -810 -5 -1526 -3 -1296 3
-1302 3 -1329 24 -15 11 -37 33 -48 48 -20 26 -21 42 -24 407 -2 259 0 379 7
379 6 0 30 -14 54 -31z"/>
<path d="M2062 3054 c-73 -19 -105 -38 -141 -81 -92 -111 -75 -283 36 -353 26
-17 106 -49 176 -71 134 -43 175 -68 178 -109 2 -44 0 -50 -33 -70 -63 -38
-174 -20 -281 44 l-58 35 -35 -39 c-19 -21 -44 -51 -56 -66 l-22 -27 30 -24
c71 -58 229 -112 326 -113 89 0 209 43 255 92 39 41 63 108 62 173 -1 144 -58
197 -292 271 -145 47 -157 54 -157 103 0 59 26 76 114 76 60 0 82 -5 137 -32
37 -18 71 -33 77 -33 17 0 94 119 88 135 -14 38 -214 106 -305 104 -25 0 -70
-7 -99 -15z"/>
<path d="M1060 2625 l0 -435 330 0 330 0 0 85 0 85 -235 0 -235 0 0 90 0 90
205 0 205 0 0 85 0 85 -205 0 -205 0 0 90 0 90 230 0 230 0 0 85 0 85 -325 0
-325 0 0 -435z"/>
<path d="M426 639 c-92 -26 -120 -145 -50 -210 25 -23 26 -23 15 -2 -19 37
-13 82 14 108 32 33 84 34 112 3 34 -37 37 -64 13 -105 l-21 -36 22 15 c28 18
59 75 59 108 0 75 -90 141 -164 119z"/>
</g>
</svg>
