<?xml version="1.0" standalone="no"?>
<!DOCTYPE svg PUBLIC "-//W3C//DTD SVG 20010904//EN"
 "http://www.w3.org/TR/2001/REC-SVG-20010904/DTD/svg10.dtd">
<svg version="1.0" xmlns="http://www.w3.org/2000/svg"
 width="451.000000pt" height="323.000000pt" viewBox="0 0 451.000000 323.000000"
 preserveAspectRatio="xMidYMid meet">
<metadata>
Created by potrace 1.16, written by Peter Selinger 2001-2019
</metadata>
<g transform="translate(0.000000,323.000000) scale(0.100000,-0.100000)"
fill="#000000" stroke="none">
<path d="M578 3220 c-123 -7 -144 -11 -200 -37 -178 -84 -319 -253 -359 -428
-21 -89 -21 -2191 0 -2280 41 -181 170 -332 361 -424 l75 -36 325 -6 c414 -9
2567 -9 2971 -1 l306 7 96 48 c156 77 270 204 329 367 l23 65 3 1115 3 1115
-27 70 c-68 174 -180 302 -326 375 l-85 42 -164 8 c-197 11 -3136 10 -3331 0z
m3507 -175 c100 -50 190 -138 234 -226 27 -55 33 -82 41 -179 12 -148 12
-1887 0 -2044 -8 -102 -13 -128 -40 -182 -55 -113 -146 -197 -268 -248 l-63
-27 -1718 0 -1718 0 -81 26 c-128 40 -211 116 -279 253 l-37 73 -9 197 c-4
108 -6 604 -4 1102 4 881 4 907 24 967 41 123 134 231 249 287 45 23 80 31
149 37 50 3 844 6 1766 5 l1676 -1 78 -40z"/>
<path d="M2592 2125 c-100 -28 -160 -74 -198 -150 -23 -48 -26 -64 -23 -138 7
-148 52 -190 293 -269 83 -27 161 -55 173 -63 30 -20 39 -69 18 -101 -53 -82
-235 -64 -377 38 l-31 22 -44 -50 c-25 -27 -51 -61 -59 -76 -13 -26 -13 -28
19 -51 41 -31 84 -53 164 -83 181 -68 381 -42 471 60 57 65 67 93 67 187 0 78
-3 90 -30 135 -41 66 -101 100 -279 158 -155 51 -186 71 -186 115 0 97 160
117 305 37 l64 -35 45 71 c25 39 46 77 46 85 0 20 -68 60 -150 88 -95 33 -214
41 -288 20z"/>
<path d="M1480 1655 l0 -475 360 0 360 0 0 95 0 95 -255 0 -255 0 0 100 0 100
220 0 220 0 0 90 0 90 -220 0 -220 0 0 95 0 95 250 0 250 0 0 95 0 95 -355 0
-355 0 0 -475z"/>
</g>
</svg>
