<?xml version="1.0" standalone="no"?>
<!DOCTYPE svg PUBLIC "-//W3C//DTD SVG 20010904//EN"
 "http://www.w3.org/TR/2001/REC-SVG-20010904/DTD/svg10.dtd">
<svg version="1.0" xmlns="http://www.w3.org/2000/svg"
 width="437.000000pt" height="331.000000pt" viewBox="0 0 437.000000 331.000000"
 preserveAspectRatio="xMidYMid meet">
<metadata>
Created by potrace 1.16, written by Peter Selinger 2001-2019
</metadata>
<g transform="translate(0.000000,331.000000) scale(0.100000,-0.100000)"
fill="#000000" stroke="none">
<path d="M485 3171 l-480 -138 -3 -1206 -2 -1205 32 -11 c53 -16 1576 -453
1872 -536 l269 -75 116 31 c64 17 204 55 311 85 340 96 1632 464 1703 485 l67
20 0 1204 0 1204 -67 20 c-38 11 -258 74 -491 141 l-422 120 -278 -79 c-357
-102 -756 -214 -855 -240 l-77 -20 -373 104 c-204 57 -475 133 -602 169 -126
36 -232 66 -235 65 -3 0 -221 -63 -485 -138z m709 -52 c116 -34 217 -65 225
-69 10 -5 -24 -20 -97 -44 -198 -64 -676 -198 -707 -197 -31 0 -424 117 -438
130 -4 4 32 20 80 34 132 41 707 206 717 207 4 0 103 -28 220 -61z m2517 -30
c361 -104 479 -140 479 -145 0 -8 -51 -24 -254 -84 l-199 -59 -226 65 c-360
104 -565 166 -574 174 -4 4 70 30 165 58 95 28 196 57 223 65 28 8 55 15 61
16 6 1 152 -40 325 -90z m-1864 -156 c170 -47 322 -86 338 -86 17 0 168 39
337 87 l308 87 367 -107 c203 -59 385 -111 406 -117 21 -5 35 -13 30 -17 -27
-25 -1415 -444 -1463 -442 -14 1 -261 73 -550 160 -771 234 -900 274 -900 282
0 4 12 10 28 14 15 3 196 55 402 115 206 61 378 110 382 110 4 1 146 -38 315
-86z m-1481 -99 c219 -66 222 -67 228 -96 11 -53 7 -686 -4 -693 -11 -7 -438
112 -457 127 -10 8 -13 88 -13 338 0 308 4 390 19 390 3 0 106 -30 227 -66z
m3878 35 c3 -17 6 -181 6 -365 l0 -333 -52 -15 c-212 -61 -378 -105 -403 -108
l-30 -3 0 359 0 360 225 67 c124 38 230 68 236 68 6 1 14 -13 18 -30z m-2825
-350 l742 -223 -3 -347 c-2 -191 -5 -350 -8 -353 -3 -3 -343 91 -755 209 -413
118 -751 215 -752 215 -6 0 -2 670 3 699 4 19 12 30 19 28 6 -3 345 -105 754
-228z m2301 -117 c0 -185 -3 -347 -6 -359 -5 -18 -23 -28 -84 -47 -75 -24
-1347 -388 -1403 -401 l-27 -7 2 353 3 354 750 226 c413 124 753 224 758 222
4 -2 7 -156 7 -341z m-2995 -447 l490 -141 2 -339 c2 -187 -1 -346 -5 -353 -8
-12 -166 30 -847 226 l-240 70 -3 355 -3 356 58 -17 c32 -9 279 -80 548 -157z
m3519 149 c3 -9 6 -166 6 -349 0 -309 -1 -334 -17 -339 -10 -3 -260 -75 -556
-160 l-537 -153 2 355 3 356 205 59 c460 132 866 246 876 247 7 0 15 -7 18
-16z m-1145 -676 l1 -337 -52 -15 c-29 -8 -195 -55 -368 -105 -173 -49 -358
-101 -410 -115 l-95 -26 -325 94 c-604 174 -577 165 -584 199 -10 47 -7 641 3
656 11 17 -33 27 527 -130 l391 -110 449 129 c390 113 450 127 456 113 4 -9 7
-168 7 -353z m-2551 -173 l53 -16 -3 -324 c-2 -178 -6 -326 -9 -329 -3 -3
-110 24 -237 61 l-232 67 0 331 0 332 188 -53 c103 -30 211 -61 240 -69z
m3697 93 c3 -13 4 -160 3 -328 l-3 -305 -215 -62 c-118 -34 -228 -65 -243 -69
l-28 -6 3 325 c2 179 7 329 11 333 8 8 432 133 454 134 7 0 15 -10 18 -22z
m-2803 -349 l718 -204 0 -334 c0 -262 -3 -332 -12 -328 -7 2 -349 100 -760
218 l-748 214 0 332 0 332 43 -13 c23 -7 365 -104 759 -217z m2278 -102 l0
-334 -692 -198 c-381 -109 -721 -206 -755 -216 l-62 -18 -6 32 c-3 18 -4 167
-3 332 l3 299 755 217 c415 119 756 217 758 218 1 1 2 -149 2 -332z"/>
</g>
</svg>
