<?xml version="1.0" standalone="no"?>
<!DOCTYPE svg PUBLIC "-//W3C//DTD SVG 20010904//EN"
 "http://www.w3.org/TR/2001/REC-SVG-20010904/DTD/svg10.dtd">
<svg version="1.0" xmlns="http://www.w3.org/2000/svg"
 width="336.000000pt" height="436.000000pt" viewBox="0 0 336.000000 436.000000"
 preserveAspectRatio="xMidYMid meet">
<metadata>
Created by potrace 1.16, written by Peter Selinger 2001-2019
</metadata>
<g transform="translate(0.000000,436.000000) scale(0.100000,-0.100000)"
fill="#000000" stroke="none">
<path d="M190 4334 c-63 -35 -127 -100 -158 -159 l-27 -50 -3 -1943 -2 -1943
26 -49 c32 -60 94 -123 154 -159 l45 -26 1453 -3 1453 -3 47 28 c62 37 130
107 156 163 l21 45 3 1942 3 1942 -26 52 c-33 65 -99 131 -164 163 l-50 26
-1443 0 -1443 0 -45 -26z m2948 -124 c23 -17 55 -49 72 -72 l30 -41 0 -1474 0
-1474 -25 -50 c-36 -71 -85 -121 -154 -158 l-60 -32 -1323 3 -1323 3 -45 21
c-68 32 -126 88 -157 152 l-28 57 -3 1465 -4 1465 28 48 c14 27 47 64 73 83
l46 34 1416 0 1416 0 41 -30z m-2853 -3306 l60 -29 1332 -3 1333 -2 61 31 c34
17 87 55 116 85 30 30 55 54 57 54 7 0 -7 -742 -15 -773 -11 -43 -58 -101
-103 -125 -29 -16 -134 -17 -1452 -17 l-1421 0 -37 28 c-20 16 -49 47 -64 70
l-27 41 -3 390 -3 390 53 -55 c31 -32 78 -68 113 -85z"/>
<path d="M1907 3611 l-37 -6 62 -70 c35 -38 214 -236 397 -440 184 -203 368
-407 409 -452 53 -59 71 -86 65 -97 -10 -19 -699 -788 -911 -1018 l-26 -28 85
0 84 0 295 327 c162 179 375 416 473 526 l177 199 -21 26 c-28 36 -279 315
-642 714 -293 323 -298 328 -335 327 -20 -1 -54 -5 -75 -8z"/>
<path d="M750 3362 c0 -4 24 -31 53 -60 l53 -52 507 0 508 0 -3 58 -3 57 -557
3 c-307 1 -558 -1 -558 -6z"/>
<path d="M728 2990 l-347 -5 50 -57 51 -58 819 0 820 0 -3 63 -3 62 -520 0
c-286 0 -676 -2 -867 -5z"/>
<path d="M750 2612 c0 -4 24 -31 53 -60 l53 -52 822 0 823 0 -3 58 -3 57 -872
3 c-480 1 -873 -1 -873 -6z"/>
<path d="M531 2213 c13 -16 37 -43 53 -60 l30 -33 819 0 819 0 -6 31 c-3 17
-6 44 -6 60 l0 29 -867 0 -866 0 24 -27z"/>
<path d="M880 1862 c0 -4 24 -31 53 -60 l53 -52 442 0 443 0 -3 58 -3 57 -492
3 c-271 1 -493 -1 -493 -6z"/>
<path d="M429 595 c-28 -15 -59 -70 -59 -105 0 -27 22 -70 48 -93 20 -18 20
-18 7 19 -22 66 8 114 73 114 51 0 101 -80 72 -115 -7 -9 -10 -18 -8 -21 3 -3
15 7 27 22 15 19 21 41 21 79 0 48 -3 56 -35 84 -28 24 -45 31 -78 31 -23 -1
-54 -7 -68 -15z"/>
</g>
</svg>
