<?xml version="1.0" standalone="no"?>
<!DOCTYPE svg PUBLIC "-//W3C//DTD SVG 20010904//EN"
 "http://www.w3.org/TR/2001/REC-SVG-20010904/DTD/svg10.dtd">
<svg version="1.0" xmlns="http://www.w3.org/2000/svg"
 width="374.000000pt" height="474.000000pt" viewBox="0 0 374.000000 474.000000"
 preserveAspectRatio="xMidYMid meet">
<metadata>
Created by potrace 1.16, written by Peter Selinger 2001-2019
</metadata>
<g transform="translate(0.000000,474.000000) scale(0.100000,-0.100000)"
fill="#000000" stroke="none">
<path d="M685 4730 c-125 -9 -155 -22 -216 -88 -61 -67 -88 -121 -99 -204 -5
-33 -11 -62 -13 -65 -3 -2 -35 -8 -72 -14 -108 -15 -183 -65 -247 -163 l-38
-59 0 -1952 0 -1952 27 -49 c37 -65 97 -125 158 -155 l50 -24 1440 0 1440 0
56 28 c105 51 174 150 187 269 l7 62 70 11 c125 21 213 83 266 187 18 36 24
70 31 198 5 86 8 951 6 1930 -4 2011 4 1833 -88 1933 -27 29 -76 68 -108 85
l-60 32 -1353 -2 c-745 0 -1394 -4 -1444 -8z m2820 -143 c22 -12 55 -44 73
-71 l32 -48 0 -1475 0 -1474 -21 -41 c-40 -79 -152 -178 -202 -178 -22 0 -27
286 -27 1614 l0 1209 -29 51 c-38 65 -92 120 -156 157 l-50 29 -1130 0 c-621
0 -1215 3 -1318 7 l-188 6 6 51 c9 67 41 122 90 157 l40 28 1420 0 1420 1 40
-23z m-471 -357 c97 -8 100 -9 138 -48 22 -21 44 -56 50 -78 8 -27 12 -483 15
-1491 l4 -1452 -27 -55 c-33 -68 -116 -149 -181 -177 -47 -20 -57 -20 -1363
-17 l-1315 3 -58 29 c-32 16 -76 49 -98 73 -77 83 -72 41 -79 788 -4 369 -4
1037 -1 1485 l6 815 24 39 c13 21 45 51 70 67 l45 29 1335 0 c735 -1 1381 -5
1435 -10z m551 -3632 c-39 -58 -96 -91 -167 -96 l-60 -5 7 374 c4 206 10 377
14 380 3 3 28 14 55 24 29 10 72 40 110 75 l61 58 3 -386 2 -386 -25 -38z
m-3292 304 l67 -32 1320 0 1321 0 61 31 c34 17 88 56 120 87 l58 55 0 -383 0
-383 -31 -49 c-21 -32 -49 -59 -83 -79 l-51 -29 -1210 0 c-665 0 -1302 3
-1413 7 -227 7 -234 9 -296 86 l-31 39 -3 394 -3 393 53 -52 c32 -32 80 -66
121 -85z"/>
<path d="M1870 3612 c0 -4 82 -97 182 -207 140 -154 540 -598 740 -822 13 -14
17 -26 11 -36 -10 -18 -314 -358 -664 -742 -140 -155 -259 -287 -263 -293 -5
-9 14 -12 73 -12 l80 0 338 373 c484 532 613 676 613 683 0 3 -53 65 -117 137
-172 190 -728 803 -784 863 l-47 51 -81 6 c-45 3 -81 2 -81 -1z"/>
<path d="M380 3362 c0 -4 24 -31 53 -60 l53 -52 252 0 252 0 0 60 0 60 -305 0
c-168 0 -305 -4 -305 -8z"/>
<path d="M1117 3363 c-4 -3 -7 -30 -7 -60 l0 -53 78 0 77 0 375 -375 375 -375
237 0 238 0 0 60 0 60 -208 0 -207 0 -375 375 -375 375 -101 0 c-55 0 -104 -3
-107 -7z"/>
<path d="M1617 3332 l-37 -38 45 -44 c44 -43 45 -43 65 -25 14 13 41 19 95 23
l75 5 0 58 0 59 -103 0 -103 0 -37 -38z"/>
<path d="M1296 3013 c-4 -5 -47 -10 -94 -13 l-87 -5 -3 -62 -3 -63 109 0 c95
0 113 3 135 20 42 33 44 57 6 96 -33 34 -49 41 -63 27z"/>
<path d="M380 2984 c0 -3 23 -30 51 -60 l52 -54 253 0 254 0 0 60 0 60 -305 0
c-168 0 -305 -3 -305 -6z"/>
<path d="M1900 2984 c0 -3 23 -30 51 -60 l52 -54 118 0 119 0 0 60 0 60 -170
0 c-93 0 -170 -3 -170 -6z"/>
<path d="M1580 2665 l-44 -45 -210 -2 -211 -3 -3 -57 -3 -58 238 0 239 0 64
65 64 65 -39 40 c-21 22 -42 40 -45 40 -3 0 -26 -20 -50 -45z"/>
<path d="M380 2612 c0 -4 24 -31 53 -60 l53 -52 252 0 252 0 0 60 0 60 -305 0
c-168 0 -305 -4 -305 -8z"/>
<path d="M1117 2243 c-4 -3 -7 -33 -7 -65 l0 -58 83 0 82 0 185 -185 185 -185
107 0 108 0 0 60 0 60 -78 0 -77 0 -190 190 -190 190 -101 0 c-55 0 -104 -3
-107 -7z"/>
<path d="M1622 2208 l-42 -44 40 -39 c38 -37 42 -39 63 -25 18 12 75 16 290
18 l267 4 0 59 0 59 -78 0 c-44 0 -173 3 -288 6 l-209 6 -43 -44z"/>
<path d="M380 2234 c0 -3 23 -30 51 -60 l52 -54 253 0 254 0 0 60 0 60 -305 0
c-168 0 -305 -3 -305 -6z"/>
<path d="M1296 1883 c-4 -5 -47 -10 -94 -13 l-87 -5 -3 -57 -3 -58 114 0 113
0 32 33 32 33 -38 37 c-38 37 -52 43 -66 30z"/>
<path d="M380 1862 c0 -4 24 -31 53 -60 l53 -52 252 0 252 0 0 60 0 60 -305 0
c-168 0 -305 -4 -305 -8z"/>
<path d="M401 575 c-25 -29 -31 -45 -31 -80 0 -38 6 -51 36 -83 29 -30 33 -32
20 -10 -26 43 -21 82 15 112 40 34 64 33 100 -3 33 -34 37 -69 12 -108 l-18
-26 27 17 c57 37 63 134 12 187 -24 25 -35 29 -85 29 -53 0 -59 -3 -88 -35z"/>
</g>
</svg>
