<?xml version="1.0" standalone="no"?>
<!DOCTYPE svg PUBLIC "-//W3C//DTD SVG 20010904//EN"
 "http://www.w3.org/TR/2001/REC-SVG-20010904/DTD/svg10.dtd">
<svg version="1.0" xmlns="http://www.w3.org/2000/svg"
 width="337.000000pt" height="438.000000pt" viewBox="0 0 337.000000 438.000000"
 preserveAspectRatio="xMidYMid meet">
<metadata>
Created by potrace 1.16, written by Peter Selinger 2001-2019
</metadata>
<g transform="translate(0.000000,438.000000) scale(0.100000,-0.100000)"
fill="#000000" stroke="none">
<path d="M300 4371 c-36 -4 -86 -17 -112 -29 -58 -25 -128 -96 -160 -159 l-23
-48 0 -1945 0 -1945 28 -57 c31 -64 94 -124 165 -160 l47 -23 1438 -3 1438 -3
60 32 c69 37 127 97 163 168 l26 50 0 1941 0 1941 -21 41 c-33 64 -123 153
-182 179 l-52 24 -1375 1 c-756 1 -1404 -1 -1440 -5z m2851 -154 c24 -18 56
-50 71 -72 l27 -40 1 -1473 0 -1473 -26 -50 c-34 -68 -92 -129 -153 -163 l-51
-27 -1332 4 c-1041 2 -1341 6 -1371 16 -50 16 -111 72 -156 141 l-36 55 -3
1350 c-3 1378 2 1624 31 1669 27 40 86 79 131 87 22 3 667 7 1433 8 l1391 1
43 -33z m-2877 -3302 l63 -35 1279 0 c715 0 1318 4 1367 10 106 11 154 35 221
112 l46 53 0 -380 c0 -353 -2 -383 -20 -420 -23 -49 -46 -77 -85 -101 -28 -18
-80 -19 -1453 -22 l-1425 -2 -42 24 c-23 14 -55 44 -71 68 l-29 43 -3 395 -3
395 46 -52 c26 -29 75 -69 109 -88z"/>
<path d="M1880 3622 c0 -8 84 -102 635 -711 165 -183 300 -338 300 -346 0 -13
-206 -245 -802 -904 -73 -80 -133 -149 -133 -153 0 -5 35 -8 78 -8 l77 0 160
177 c387 427 758 840 776 864 l19 26 -137 154 c-75 85 -291 324 -480 532
l-343 377 -75 0 c-41 0 -75 -4 -75 -8z"/>
<path d="M390 3367 c0 -7 24 -36 53 -65 l53 -52 247 0 247 0 0 65 0 65 -300 0
c-238 0 -300 -3 -300 -13z"/>
<path d="M1120 3315 l0 -65 83 0 82 0 375 -375 375 -375 227 0 228 0 0 65 0
65 -208 0 -207 0 -375 375 -375 375 -102 0 -103 0 0 -65z"/>
<path d="M1625 3339 l-40 -40 43 -40 c40 -38 43 -39 64 -24 16 10 46 15 100
15 l78 0 0 65 0 65 -103 0 -103 0 -39 -41z"/>
<path d="M1300 3015 c-15 -9 -55 -14 -102 -15 l-78 0 0 -60 0 -60 108 0 108 0
34 35 34 35 -39 40 c-38 37 -41 38 -65 25z"/>
<path d="M435 2940 l59 -60 248 0 248 0 0 60 0 60 -307 0 -307 0 59 -60z"/>
<path d="M1910 2991 c0 -5 21 -32 46 -60 l46 -51 119 0 119 0 0 60 0 60 -165
0 c-91 0 -165 -4 -165 -9z"/>
<path d="M1580 2675 l-44 -45 -208 0 -208 0 0 -65 0 -65 232 0 232 0 68 67 68
67 -42 43 c-23 24 -45 43 -48 43 -3 0 -26 -20 -50 -45z"/>
<path d="M394 2619 c-3 -6 18 -35 47 -65 l53 -54 248 0 248 0 0 65 0 65 -294
0 c-203 0 -297 -3 -302 -11z"/>
<path d="M435 2190 l59 -60 248 0 248 0 0 60 0 60 -307 0 -307 0 59 -60z"/>
<path d="M1120 2190 l0 -60 78 0 77 0 190 -190 190 -190 107 0 108 0 0 65 0
65 -83 0 -82 0 -185 185 -185 185 -107 0 -108 0 0 -60z"/>
<path d="M1620 2215 l-34 -35 43 -44 42 -43 37 18 c32 17 62 19 284 19 l248 0
0 60 0 60 -293 0 -293 0 -34 -35z"/>
<path d="M1290 1890 c-8 -5 -50 -10 -92 -10 l-78 0 0 -65 0 -65 105 0 c102 0
105 1 140 31 19 17 35 36 35 43 0 17 -63 76 -80 76 -8 0 -22 -5 -30 -10z"/>
<path d="M401 1873 c-22 -4 -20 -8 35 -64 l58 -59 248 0 248 0 0 65 0 65 -282
-1 c-156 -1 -294 -4 -307 -6z"/>
<path d="M432 600 c-45 -28 -68 -82 -53 -130 6 -20 20 -45 32 -56 22 -19 22
-19 13 6 -20 60 4 104 63 116 27 5 37 1 63 -24 32 -32 37 -59 19 -95 -12 -22
-12 -22 9 -4 54 49 53 127 -4 176 -42 37 -92 41 -142 11z"/>
</g>
</svg>
