<?xml version="1.0" standalone="no"?>
<!DOCTYPE svg PUBLIC "-//W3C//DTD SVG 20010904//EN"
 "http://www.w3.org/TR/2001/REC-SVG-20010904/DTD/svg10.dtd">
<svg version="1.0" xmlns="http://www.w3.org/2000/svg"
 width="428.000000pt" height="480.000000pt" viewBox="0 0 428.000000 480.000000"
 preserveAspectRatio="xMidYMid meet">
<metadata>
Created by potrace 1.16, written by Peter Selinger 2001-2019
</metadata>
<g transform="translate(0.000000,480.000000) scale(0.100000,-0.100000)"
fill="#000000" stroke="none">
<path d="M1380 4793 c-65 -4 -100 -21 -100 -50 0 -7 -1 -14 -2 -15 -2 -1 -266
-4 -588 -7 -657 -7 -628 -3 -668 -81 -21 -41 -23 -55 -20 -158 5 -125 15 -149
79 -187 33 -19 55 -20 617 -23 l582 -3 0 -83 c0 -127 4 -130 169 -134 l131 -4
0 46 c0 101 69 215 157 257 67 33 210 33 271 1 92 -49 149 -136 167 -255 l7
-47 112 1 c61 1 122 4 136 8 33 9 49 56 49 144 l1 67 578 0 579 0 41 30 c62
45 67 59 67 195 0 103 -3 125 -21 155 -39 67 -17 65 -661 68 l-583 3 -15 28
c-8 16 -22 32 -32 37 -18 9 -926 14 -1053 7z m-100 -298 l0 -75 -565 0 -565 0
0 75 0 75 565 0 565 0 0 -75z m2320 0 l0 -75 -560 0 -560 0 0 75 0 75 560 0
560 0 0 -75z"/>
<path d="M1820 4223 c-8 -3 -32 -22 -52 -41 l-38 -36 0 -123 0 -123 -522 0
-523 -1 -47 -32 c-26 -18 -61 -50 -77 -72 l-30 -40 -1 -1580 0 -1580 31 -45
c17 -25 48 -57 69 -73 l38 -27 840 0 839 0 38 -57 c106 -159 278 -288 475
-353 162 -55 390 -53 557 4 270 92 467 293 569 581 25 73 28 95 32 246 5 192
-9 261 -78 406 -125 259 -344 431 -632 499 l-78 18 0 188 0 188 525 0 525 0 0
75 0 75 -525 0 -525 0 0 115 0 115 525 0 525 0 0 53 c0 28 -3 62 -6 75 l-6 22
-519 0 -519 0 0 110 0 110 525 0 525 0 0 75 0 75 -525 0 -525 0 0 248 c-1 136
-5 291 -9 345 -7 85 -12 103 -37 140 -17 23 -50 53 -74 67 l-45 25 -517 3
-518 4 0 79 c0 141 -30 214 -97 240 -26 10 -88 11 -113 2z m1222 -487 c9 -4
20 -15 23 -24 4 -9 10 -158 13 -329 l5 -313 -632 0 c-429 0 -631 -3 -631 -10
0 -6 23 -40 52 -75 l52 -65 578 0 578 0 0 -110 0 -110 -612 -1 c-337 -1 -623
-4 -635 -7 -21 -7 -19 -11 33 -74 l55 -68 580 0 579 0 0 -115 0 -115 -630 0
c-459 0 -630 -3 -630 -11 0 -6 23 -40 52 -75 l51 -64 579 0 578 0 0 -188 0
-189 -81 -12 c-199 -30 -409 -144 -533 -289 -51 -59 -146 -198 -146 -213 0
-10 -1371 -11 -1502 -1 -73 6 -91 11 -113 32 l-26 24 4 1181 c1 649 7 1190 11
1202 4 12 15 24 25 27 26 8 2304 0 2323 -8z m264 -2116 c224 -56 391 -194 494
-405 59 -122 70 -172 70 -323 0 -142 -14 -205 -74 -327 -130 -262 -377 -414
-676 -414 -118 -1 -209 21 -315 73 -157 78 -277 199 -350 351 -53 111 -69 184
-69 320 0 141 16 209 76 335 34 72 56 100 142 186 100 99 140 128 245 173 126
54 316 67 457 31z m-1809 -420 c419 -3 764 -8 768 -12 4 -4 0 -35 -9 -70 -9
-35 -19 -112 -22 -173 -6 -103 1 -173 32 -318 l6 -28 -780 3 c-624 2 -784 6
-794 16 -10 10 -14 83 -16 312 l-3 300 28 -12 c21 -10 221 -14 790 -18z"/>
<path d="M3470 1164 c-93 -40 -115 -100 -108 -300 4 -152 17 -183 88 -222 36
-19 55 -23 96 -19 100 10 145 58 160 171 l7 46 -55 0 -55 0 -7 -50 c-10 -78
-61 -114 -99 -72 -25 27 -40 125 -34 222 5 93 17 129 50 149 19 12 24 10 49
-18 15 -17 28 -42 28 -56 0 -24 3 -25 55 -25 l55 0 0 35 c0 113 -122 186 -230
139z"/>
<path d="M2570 895 l0 -265 55 0 55 0 0 120 0 120 60 0 60 0 0 -120 0 -120 55
0 55 0 0 265 0 265 -55 0 -55 0 0 -100 0 -100 -60 0 -60 0 0 100 0 100 -55 0
-55 0 0 -265z"/>
<path d="M2980 895 l0 -265 155 0 155 0 0 45 0 45 -100 0 -100 0 0 70 0 70 90
0 90 0 0 45 0 45 -90 0 -90 0 0 65 0 65 95 0 95 0 0 40 0 40 -150 0 -150 0 0
-265z"/>
<path d="M911 996 c-50 -28 -66 -96 -31 -137 l20 -24 -6 31 c-8 40 23 74 65
74 40 0 61 -24 61 -68 0 -34 1 -35 17 -19 11 11 18 33 18 58 0 74 -79 121
-144 85z"/>
</g>
</svg>
