<?xml version="1.0" standalone="no"?>
<!DOCTYPE svg PUBLIC "-//W3C//DTD SVG 20010904//EN"
 "http://www.w3.org/TR/2001/REC-SVG-20010904/DTD/svg10.dtd">
<svg version="1.0" xmlns="http://www.w3.org/2000/svg"
 width="336.000000pt" height="436.000000pt" viewBox="0 0 336.000000 436.000000"
 preserveAspectRatio="xMidYMid meet">
<metadata>
Created by potrace 1.16, written by Peter Selinger 2001-2019
</metadata>
<g transform="translate(0.000000,436.000000) scale(0.100000,-0.100000)"
fill="#000000" stroke="none">
<path d="M195 4338 c-67 -35 -116 -79 -157 -142 l-38 -59 0 -1952 0 -1952 26
-47 c35 -62 103 -129 161 -158 l48 -23 1440 0 1440 0 47 22 c61 28 133 95 169
158 l29 50 0 1943 0 1943 -26 50 c-32 65 -98 131 -163 163 l-50 26 -1443 0
-1443 -1 -40 -21z m2941 -127 c51 -37 70 -59 89 -104 13 -32 15 -205 15 -1499
l0 -1463 -29 -50 c-38 -67 -104 -130 -167 -161 l-51 -25 -1314 3 c-1234 3
-1317 5 -1361 22 -59 22 -130 84 -166 144 l-27 47 0 1490 0 1490 24 39 c13 21
45 51 70 67 l45 29 1416 0 1417 0 39 -29z m106 -3557 l-4 -390 -34 -47 c-21
-29 -53 -56 -84 -72 l-49 -25 -1214 0 c-668 0 -1303 3 -1411 7 -221 7 -228 9
-290 86 l-31 39 -3 396 -3 396 40 -46 c26 -29 70 -61 120 -87 l79 -41 1321 0
1321 0 68 34 c39 20 90 58 121 90 30 30 55 54 56 53 1 -1 0 -178 -3 -393z"/>
<path d="M1555 3704 c-179 -53 -412 -125 -613 -190 -266 -85 -297 -104 -313
-184 -4 -25 -8 -380 -9 -789 0 -735 0 -745 21 -788 35 -73 21 -67 661 -267
245 -77 319 -96 367 -96 66 0 267 55 638 174 244 78 341 113 369 131 12 8 31
34 43 58 21 43 21 50 21 814 l0 770 -35 47 c-20 25 -37 46 -38 46 -2 0 -54 18
-117 39 -160 55 -617 198 -725 227 -103 27 -195 30 -270 8z m235 -129 c213
-57 738 -224 793 -251 l27 -15 0 -239 0 -240 -930 0 -930 0 0 239 c0 179 3
241 13 248 33 27 850 281 907 282 14 1 68 -10 120 -24z m823 -1018 l2 -227
-935 0 -935 0 2 227 c1 126 3 229 3 231 0 1 419 1 930 0 l931 -3 2 -228z m-3
-512 c0 -243 0 -245 -22 -259 -32 -20 -800 -254 -878 -268 l-65 -11 -310 98
c-170 53 -372 117 -447 141 l-138 45 0 250 0 249 930 0 930 0 0 -245z"/>
<path d="M997 3113 c-2 -4 -5 -32 -6 -60 l-2 -53 131 0 132 0 -4 58 -3 57
-122 3 c-67 1 -123 -1 -126 -5z"/>
<path d="M1368 3108 c-3 -7 -6 -34 -7 -60 l-3 -48 197 0 197 0 -4 58 -4 57
-186 3 c-143 2 -187 0 -190 -10z"/>
<path d="M1867 3114 c-4 -4 -7 -31 -7 -61 l0 -53 256 0 256 0 -4 58 -3 57
-246 3 c-135 1 -248 -1 -252 -4z"/>
<path d="M995 2610 c-3 -5 -5 -32 -4 -60 l3 -50 437 0 436 0 -1 58 -1 57 -432
3 c-279 1 -434 -1 -438 -8z"/>
<path d="M1994 2606 c-3 -7 -4 -33 -2 -57 l3 -44 186 -3 186 -2 -1 57 -1 58
-183 3 c-149 2 -183 0 -188 -12z"/>
<path d="M999 2118 c0 -2 -2 -29 -3 -61 l-3 -57 186 2 186 3 0 45 c1 25 -1 51
-3 58 -3 9 -49 12 -183 12 -98 0 -179 -1 -180 -2z"/>
<path d="M1499 2118 c-1 -2 -2 -29 -3 -60 l-1 -58 61 0 61 0 -1 58 -1 57 -57
3 c-32 2 -58 2 -59 0z"/>
<path d="M1749 2118 c-1 -2 -3 -29 -4 -60 l-2 -58 312 0 312 0 -2 58 -1 57
-307 3 c-169 1 -308 1 -308 0z"/>
<path d="M404 579 c-25 -26 -29 -38 -29 -84 0 -49 4 -58 34 -87 32 -31 33 -31
18 -6 -27 43 -22 82 14 112 40 34 64 33 100 -3 33 -34 37 -69 12 -108 l-18
-26 26 16 c58 38 67 126 18 182 -29 32 -35 35 -88 35 -51 0 -61 -3 -87 -31z"/>
</g>
</svg>
