<?xml version="1.0" standalone="no"?>
<!DOCTYPE svg PUBLIC "-//W3C//DTD SVG 20010904//EN"
 "http://www.w3.org/TR/2001/REC-SVG-20010904/DTD/svg10.dtd">
<svg version="1.0" xmlns="http://www.w3.org/2000/svg"
 width="437.000000pt" height="337.000000pt" viewBox="0 0 437.000000 337.000000"
 preserveAspectRatio="xMidYMid meet">
<metadata>
Created by potrace 1.16, written by Peter Selinger 2001-2019
</metadata>
<g transform="translate(0.000000,337.000000) scale(0.100000,-0.100000)"
fill="#000000" stroke="none">
<path d="M239 3345 c-41 -26 -110 -103 -108 -119 1 -6 1 -622 0 -1368 l-1
-1358 -66 0 -66 0 3 -179 4 -180 30 -43 c56 -79 73 -85 257 -93 90 -3 1011 -5
2048 -3 2103 3 1911 -4 1978 72 45 51 53 95 50 268 l-3 153 -57 3 -58 3 0
1352 0 1352 -33 55 c-24 40 -46 62 -82 82 l-50 28 -1905 -1 -1905 0 -36 -24z
m3865 -78 c57 -38 54 28 62 -1425 l7 -1342 -1981 0 -1982 0 1 1308 c0 719 4
1333 8 1365 11 89 26 98 163 107 62 4 919 7 1903 6 1717 -1 1792 -2 1819 -19z
m-2352 -2907 c4 -38 12 -58 33 -80 l29 -30 350 0 c198 0 366 4 386 10 41 11
66 47 76 108 l7 42 826 -2 826 -3 3 -105 c3 -127 2 -135 -43 -183 l-35 -38
-2017 3 c-1886 3 -2020 4 -2049 20 -43 23 -55 62 -61 196 l-6 112 835 0 835 0
5 -50z m828 20 c0 -53 -19 -79 -64 -85 -76 -12 -694 -1 -707 12 -6 6 -14 32
-16 57 l-6 46 397 0 396 0 0 -30z"/>
<path d="M504 3113 c-53 -3 -65 -8 -90 -34 l-29 -30 0 -1092 c0 -601 4 -1109
8 -1130 5 -24 18 -43 35 -55 24 -16 131 -17 1757 -20 l1730 -3 40 41 39 40 -3
1112 -3 1113 -36 32 -37 32 -1675 -1 c-921 -1 -1702 -3 -1736 -5z m3281 -42
l140 -6 14 -40 c11 -33 14 -217 14 -1065 1 -977 -2 -1116 -23 -1150 -8 -13
-218 -15 -1736 -18 l-1727 -2 -24 22 -23 21 0 1101 0 1100 22 23 21 23 1591
-1 c875 -1 1654 -4 1731 -8z"/>
<path d="M3635 279 c-16 -24 18 -29 181 -27 142 3 169 5 169 18 0 13 -27 15
-172 18 -118 2 -174 -1 -178 -9z"/>
</g>
</svg>
