<?xml version="1.0" standalone="no"?>
<!DOCTYPE svg PUBLIC "-//W3C//DTD SVG 20010904//EN"
 "http://www.w3.org/TR/2001/REC-SVG-20010904/DTD/svg10.dtd">
<svg version="1.0" xmlns="http://www.w3.org/2000/svg"
 width="336.000000pt" height="436.000000pt" viewBox="0 0 336.000000 436.000000"
 preserveAspectRatio="xMidYMid meet">
<metadata>
Created by potrace 1.16, written by Peter Selinger 2001-2019
</metadata>
<g transform="translate(0.000000,436.000000) scale(0.100000,-0.100000)"
fill="#000000" stroke="none">
<path d="M174 4325 c-70 -42 -105 -80 -145 -157 l-29 -57 0 -1932 0 -1931 31
-59 c40 -74 86 -122 152 -157 l52 -27 1442 -3 1442 -3 51 26 c68 34 126 88
161 150 l29 50 0 1955 0 1955 -29 50 c-35 62 -93 116 -160 150 l-50 25 -1444
0 -1443 0 -60 -35z m2929 -96 c49 -13 113 -76 126 -126 8 -26 11 -497 11
-1484 0 -1260 -2 -1452 -15 -1496 -20 -67 -86 -140 -164 -182 l-60 -32 -1323
3 -1323 3 -53 28 c-67 35 -122 90 -153 153 l-24 49 0 1476 0 1475 28 42 c15
23 46 54 69 69 l42 28 485 6 c683 8 2307 0 2354 -12z m-2826 -3320 c42 -20 70
-24 223 -32 96 -4 702 -7 1345 -5 l1170 3 58 27 c32 15 81 51 113 82 l55 56
-3 -393 c-3 -448 -1 -435 -93 -492 l-48 -30 -1396 0 c-768 0 -1413 4 -1434 8
-20 4 -54 22 -74 40 -67 59 -67 59 -71 487 l-3 385 54 -56 c31 -31 77 -67 104
-80z"/>
<path d="M1186 3860 l-378 -5 -28 -33 c-15 -19 -31 -46 -34 -60 -8 -34 2
-2185 10 -2271 7 -73 23 -94 81 -110 50 -14 1598 -15 1674 -1 42 8 60 17 82
42 l27 32 -1 536 c-3 1142 -13 1816 -28 1833 -7 9 -30 21 -50 26 -46 12 -864
19 -1355 11z m938 -280 c-1 -19 -2 -45 -3 -57 l-1 -23 -560 0 -560 0 -1 23
c-4 65 -5 83 -1 90 2 4 256 6 565 5 l561 -3 0 -35z m368 -1185 c1 -470 2 -863
2 -872 1 -17 -45 -18 -811 -21 l-813 -2 0 870 0 870 673 3 c369 1 734 3 810 5
l137 2 2 -855z"/>
<path d="M999 2975 c-1 -14 -2 -42 -3 -62 l-1 -38 375 -3 375 -2 -1 52 c-1 29
-2 59 -3 66 -1 9 -82 12 -371 12 l-370 0 -1 -25z"/>
<path d="M2065 2960 c-5 -15 -12 -18 -34 -14 -23 5 -29 2 -34 -15 -3 -15 -13
-21 -31 -21 -21 0 -26 -5 -26 -25 0 -14 -8 -29 -19 -35 -13 -6 -17 -17 -14
-30 3 -12 -2 -29 -12 -40 -18 -20 -18 -21 1 -35 16 -12 17 -17 6 -35 -14 -23
-8 -40 14 -40 12 0 14 -7 9 -29 -5 -25 -3 -30 17 -33 17 -2 24 -11 26 -30 3
-24 7 -27 31 -22 23 5 29 2 34 -15 4 -18 10 -21 32 -15 19 5 30 1 40 -12 13
-19 14 -19 28 0 10 14 21 17 40 12 20 -5 29 -2 37 15 8 15 18 19 34 15 17 -4
24 1 33 24 6 17 19 30 28 30 14 0 16 6 12 30 -5 22 -3 30 8 30 21 0 27 17 13
40 -11 18 -10 23 6 35 18 14 18 16 2 34 -11 12 -15 27 -11 43 5 20 2 26 -14
31 -15 3 -21 13 -21 31 0 21 -5 26 -24 26 -16 0 -27 7 -31 21 -5 16 -13 20
-31 16 -17 -3 -29 2 -39 16 -14 20 -15 20 -35 2 -19 -17 -21 -17 -38 -2 -24
22 -29 21 -37 -3z"/>
<path d="M997 2613 c-4 -3 -7 -30 -7 -60 l0 -53 380 0 381 0 -3 58 -3 57 -371
3 c-204 1 -373 -1 -377 -5z"/>
<path d="M999 2248 c-1 -2 -3 -31 -6 -65 l-4 -63 631 0 631 0 -3 63 -4 62
-622 3 c-342 1 -622 1 -623 0z"/>
<path d="M999 1868 c-1 -2 -2 -29 -3 -60 l-2 -58 500 0 501 0 -1 48 c-1 26 -2
53 -3 60 -1 9 -107 12 -496 12 -272 0 -496 -1 -496 -2z"/>
<path d="M441 603 c-23 -11 -40 -31 -52 -59 -22 -49 -17 -88 16 -130 l22 -28
-4 50 c-7 65 17 98 72 98 52 0 78 -33 73 -91 l-3 -42 22 21 c18 17 23 33 23
73 0 60 -19 91 -66 111 -43 18 -61 17 -103 -3z"/>
</g>
</svg>
