<?xml version="1.0" standalone="no"?>
<!DOCTYPE svg PUBLIC "-//W3C//DTD SVG 20010904//EN"
 "http://www.w3.org/TR/2001/REC-SVG-20010904/DTD/svg10.dtd">
<svg version="1.0" xmlns="http://www.w3.org/2000/svg"
 width="408.000000pt" height="451.000000pt" viewBox="0 0 408.000000 451.000000"
 preserveAspectRatio="xMidYMid meet">
<metadata>
Created by potrace 1.16, written by Peter Selinger 2001-2019
</metadata>
<g transform="translate(0.000000,451.000000) scale(0.100000,-0.100000)"
fill="#000000" stroke="none">
<path d="M303 4501 c-170 -6 -172 -6 -214 -36 -23 -16 -52 -48 -63 -70 l-21
-40 -3 -1959 c-2 -1129 1 -2026 7 -2118 l9 -160 33 -34 c18 -18 53 -44 78 -56
l46 -23 1590 -3 c1475 -3 1595 -2 1655 14 306 81 532 292 632 590 20 61 23 88
23 229 -1 172 -11 227 -61 340 -60 136 -181 285 -292 360 l-59 39 -6 1381 c-5
892 -11 1393 -17 1417 -11 38 -72 101 -118 120 -20 9 -422 12 -1537 13 -830 1
-1587 -1 -1682 -4z m2437 -621 l0 -70 -1125 0 -1125 0 0 70 0 70 1125 0 1125
0 0 -70z m778 -1493 c-2 -392 -7 -718 -11 -724 -5 -7 -24 -6 -64 4 -93 23
-320 21 -414 -5 -275 -74 -495 -284 -590 -560 -32 -93 -33 -103 -34 -252 0
-135 3 -165 23 -230 51 -161 137 -297 259 -409 l77 -72 -1291 3 c-1225 3
-1293 4 -1310 21 -17 17 -18 92 -21 1477 l-3 1460 1692 0 1692 0 -5 -713z
m-79 -871 c115 -33 204 -87 297 -181 66 -66 90 -100 128 -176 61 -124 79 -212
73 -354 -10 -214 -114 -404 -292 -530 -132 -95 -245 -130 -415 -129 -97 0
-128 5 -195 27 -312 103 -515 398 -491 717 10 144 48 249 131 365 172 242 475
345 764 261z"/>
<path d="M2466 2725 c-10 -25 -22 -47 -26 -50 -5 -3 -28 4 -51 15 -47 24 -69
21 -69 -12 0 -13 -3 -34 -7 -47 -6 -22 -9 -23 -66 -17 -58 6 -59 5 -53 -17 3
-12 9 -39 12 -59 6 -36 6 -37 -32 -44 -74 -13 -78 -19 -47 -71 l27 -46 -25
-21 c-14 -12 -36 -29 -49 -38 l-25 -17 43 -38 c23 -21 42 -42 42 -47 0 -4 -13
-24 -30 -43 -16 -18 -30 -37 -30 -42 0 -5 23 -18 50 -29 l50 -21 -20 -53 c-11
-29 -20 -54 -20 -55 0 -2 20 -3 44 -3 62 0 78 -18 70 -81 -4 -27 -5 -49 -3
-49 2 0 29 7 59 15 30 8 56 15 57 15 1 0 9 -24 19 -52 9 -29 18 -55 20 -57 2
-2 25 13 52 33 l49 35 32 -49 c18 -28 34 -50 35 -50 1 0 17 20 35 45 18 25 37
45 42 45 6 0 25 -11 43 -25 44 -33 52 -32 67 13 19 59 24 63 76 47 26 -8 50
-12 55 -9 4 3 8 27 8 54 0 56 15 70 75 70 33 0 36 2 29 23 -3 12 -13 34 -20
49 -8 15 -14 30 -14 33 0 3 21 15 47 26 26 11 50 22 52 25 2 2 -10 22 -27 43
-18 22 -32 44 -32 50 0 6 18 25 40 42 22 18 40 36 40 40 0 5 -18 18 -39 29
-22 11 -42 24 -46 29 -3 6 6 33 19 60 29 55 31 53 -47 66 l-38 6 7 61 7 61
-39 -7 c-21 -4 -46 -9 -55 -12 -19 -5 -29 21 -29 79 0 20 -5 37 -10 37 -6 0
-33 -11 -61 -25 l-50 -26 -22 50 c-12 28 -26 51 -32 51 -5 0 -23 -16 -38 -35
l-28 -36 -46 41 c-25 22 -49 40 -53 40 -4 0 -15 -20 -24 -45z"/>
<path d="M490 2610 l0 -70 670 0 670 0 0 70 0 70 -670 0 -670 0 0 -70z"/>
<path d="M490 2050 l0 -70 670 0 670 0 0 70 0 70 -670 0 -670 0 0 -70z"/>
<path d="M490 1480 l0 -70 950 0 950 0 0 70 0 70 -950 0 -950 0 0 -70z"/>
<path d="M490 920 l0 -70 775 0 775 0 0 70 0 70 -775 0 -775 0 0 -70z"/>
<path d="M3222 1263 c-5 -10 -28 -75 -51 -144 l-42 -126 -140 -6 c-78 -3 -145
-9 -150 -14 -17 -17 2 -41 107 -128 72 -61 104 -94 104 -109 0 -11 -16 -77
-35 -145 -19 -69 -35 -131 -35 -138 0 -27 40 -11 131 53 139 99 125 97 224 28
187 -131 193 -129 140 53 -20 70 -39 135 -42 144 -3 11 26 42 89 96 123 107
145 130 131 144 -6 6 -72 13 -151 16 l-141 6 -48 141 c-49 142 -69 171 -91
129z"/>
</g>
</svg>
