<?xml version="1.0" standalone="no"?>
<!DOCTYPE svg PUBLIC "-//W3C//DTD SVG 20010904//EN"
 "http://www.w3.org/TR/2001/REC-SVG-20010904/DTD/svg10.dtd">
<svg version="1.0" xmlns="http://www.w3.org/2000/svg"
 width="312.000000pt" height="375.000000pt" viewBox="0 0 312.000000 375.000000"
 preserveAspectRatio="xMidYMid meet">
<metadata>
Created by potrace 1.16, written by Peter Selinger 2001-2019
</metadata>
<g transform="translate(0.000000,375.000000) scale(0.100000,-0.100000)"
fill="#000000" stroke="none">
<path d="M97 3740 c-21 -4 -51 -20 -68 -36 l-30 -29 4 -1790 c2 -984 7 -1803
12 -1818 4 -16 19 -36 33 -45 24 -16 128 -17 1417 -17 764 0 1411 4 1438 8 84
15 82 2 85 459 l3 398 65 0 64 0 0 628 0 628 -64 63 -65 64 -3 286 c-3 280 -4
287 -27 336 -19 38 -115 141 -405 431 -316 315 -392 386 -442 412 l-62 32
-958 -1 c-528 -1 -976 -5 -997 -9z m1905 -507 c3 -425 4 -429 62 -461 27 -15
79 -17 419 -20 l387 -4 0 -314 0 -314 -1125 0 -1125 0 0 -625 0 -625 1125 0
1125 0 0 -375 0 -375 -1375 0 -1375 0 0 1750 0 1750 940 0 939 0 3 -387z m783
-353 c-11 -5 -158 -9 -327 -9 -266 -1 -309 1 -322 15 -14 13 -16 59 -16 352
l0 337 343 -344 c297 -298 339 -344 322 -351z m213 -1382 l2 -498 -1130 0
-1130 0 0 493 c0 272 3 497 7 500 3 4 511 6 1127 5 l1121 -3 3 -497z"/>
<path d="M1823 1743 c-40 -5 -78 -49 -94 -106 -17 -64 -8 -274 14 -315 29 -54
71 -74 144 -69 120 9 147 45 152 210 4 157 -2 196 -42 240 -28 31 -39 37 -87
40 -30 3 -69 3 -87 0z m93 -77 c15 -11 20 -30 24 -90 8 -126 -2 -225 -24 -242
-25 -17 -47 -18 -70 -1 -43 32 -43 303 0 334 23 17 46 16 70 -1z"/>
<path d="M2191 1732 c-65 -33 -76 -58 -80 -198 -4 -170 2 -206 45 -249 29 -29
42 -35 77 -35 24 0 59 8 79 19 30 15 38 16 42 5 3 -8 19 -14 36 -14 l30 0 0
130 0 130 -81 0 -80 0 3 -32 c2 -28 8 -34 31 -36 16 -2 31 -10 34 -18 11 -28
-8 -84 -33 -100 -56 -38 -94 24 -94 154 0 76 16 163 34 181 24 23 65 5 82 -34
13 -33 17 -35 60 -35 l46 0 -7 33 c-11 50 -43 94 -77 106 -46 16 -108 13 -147
-7z"/>
<path d="M1410 1501 l0 -241 136 0 135 0 -3 33 -3 32 -80 8 c-43 4 -80 9 -82
10 -1 1 -3 90 -5 197 l-3 195 -47 3 -48 3 0 -240z"/>
<path d="M1250 1309 l0 -50 43 3 42 3 3 48 3 47 -45 0 -46 0 0 -51z"/>
</g>
</svg>
