<?xml version="1.0" standalone="no"?>
<!DOCTYPE svg PUBLIC "-//W3C//DTD SVG 20010904//EN"
 "http://www.w3.org/TR/2001/REC-SVG-20010904/DTD/svg10.dtd">
<svg version="1.0" xmlns="http://www.w3.org/2000/svg"
 width="336.000000pt" height="436.000000pt" viewBox="0 0 336.000000 436.000000"
 preserveAspectRatio="xMidYMid meet">
<metadata>
Created by potrace 1.16, written by Peter Selinger 2001-2019
</metadata>
<g transform="translate(0.000000,436.000000) scale(0.100000,-0.100000)"
fill="#000000" stroke="none">
<path d="M184 4330 c-64 -38 -129 -107 -157 -168 l-22 -47 0 -1935 0 -1935 25
-50 c33 -67 103 -136 173 -169 l57 -27 1428 3 1427 3 47 22 c62 28 131 93 168
158 l30 52 0 1942 0 1942 -26 50 c-32 65 -98 131 -163 163 l-50 26 -1443 0
-1443 0 -51 -30z m2954 -120 c23 -17 55 -49 72 -72 l30 -41 0 -1474 0 -1474
-26 -50 c-34 -68 -98 -130 -168 -163 l-58 -28 -1312 4 -1311 3 -52 24 c-63 28
-135 102 -168 174 l-25 52 0 1453 0 1453 24 47 c28 55 58 85 106 106 31 13
208 15 1441 16 l1406 0 41 -30z m104 -3547 c-4 -374 -5 -389 -26 -427 -11 -22
-38 -53 -59 -69 -34 -28 -46 -31 -145 -38 -130 -9 -2215 -10 -2539 -1 l-232 7
-41 40 c-78 75 -75 55 -78 485 l-4 385 59 -57 c33 -30 87 -70 121 -87 l61 -31
1321 0 1320 0 68 34 c39 20 90 58 122 90 30 31 55 56 55 56 1 0 -1 -174 -3
-387z"/>
<path d="M913 3609 c-12 -4 -26 -17 -32 -28 -7 -13 -11 -141 -11 -368 l0 -349
-46 -38 c-25 -21 -52 -54 -60 -72 -32 -77 -4 -174 65 -221 l40 -28 1 -472 c0
-270 4 -482 9 -496 16 -42 90 -49 106 -10 4 10 10 234 13 499 l5 480 32 21
c34 23 85 111 85 148 0 57 -51 147 -95 167 l-23 10 -4 357 c-2 256 -6 362 -15
377 -15 26 -41 34 -70 23z m94 -809 c46 -27 65 -63 66 -119 1 -81 -57 -141
-138 -141 -107 0 -175 110 -128 207 33 69 131 96 200 53z"/>
<path d="M1662 3609 c-12 -5 -27 -20 -32 -34 -6 -16 -10 -254 -10 -619 l0
-593 -40 -28 c-105 -73 -105 -230 0 -303 l39 -27 1 -232 c0 -219 1 -234 20
-253 21 -21 55 -26 80 -10 18 11 28 122 29 340 l1 155 31 20 c34 23 74 84 84
132 10 52 -14 113 -66 163 l-47 45 -4 595 c-3 406 -8 603 -15 621 -13 30 -38
40 -71 28z m73 -1298 c61 -28 78 -53 83 -121 4 -49 1 -64 -18 -90 -42 -59
-127 -77 -188 -40 -100 61 -94 203 11 250 52 24 62 24 112 1z"/>
<path d="M2414 3610 c-37 -14 -41 -32 -46 -202 l-5 -167 -51 -49 c-56 -54 -68
-90 -59 -170 4 -40 12 -53 57 -96 l53 -50 5 -669 c5 -643 6 -671 24 -689 26
-26 69 -20 85 12 9 19 13 110 13 355 0 182 3 482 7 667 l6 336 25 14 c14 7 38
31 54 52 23 33 28 49 28 100 0 70 -19 109 -73 150 l-34 26 -6 163 c-3 89 -10
174 -15 188 -12 29 -37 40 -68 29z m82 -426 c47 -23 74 -70 74 -132 0 -43 -5
-57 -30 -86 -53 -60 -136 -71 -194 -25 -134 106 -4 316 150 243z"/>
<path d="M465 613 c-60 -15 -103 -83 -90 -142 3 -15 20 -41 38 -57 18 -16 26
-22 20 -14 -7 8 -13 31 -13 52 0 81 84 113 138 52 27 -31 28 -50 1 -93 l-21
-35 23 15 c28 19 59 76 59 109 0 30 -26 71 -62 99 -25 20 -51 24 -93 14z"/>
</g>
</svg>
