<?xml version="1.0" standalone="no"?>
<!DOCTYPE svg PUBLIC "-//W3C//DTD SVG 20010904//EN"
 "http://www.w3.org/TR/2001/REC-SVG-20010904/DTD/svg10.dtd">
<svg version="1.0" xmlns="http://www.w3.org/2000/svg"
 width="433.000000pt" height="243.000000pt" viewBox="0 0 433.000000 243.000000"
 preserveAspectRatio="xMidYMid meet">
<metadata>
Created by potrace 1.16, written by Peter Selinger 2001-2019
</metadata>
<g transform="translate(0.000000,243.000000) scale(0.100000,-0.100000)"
fill="#000000" stroke="none">
<path d="M732 2418 c-63 -25 -201 -137 -240 -196 l-37 -55 0 -241 c1 -276 10
-326 69 -371 18 -14 52 -61 77 -107 56 -104 116 -170 184 -203 147 -72 293 5
388 206 23 49 49 92 59 95 9 3 30 31 45 62 26 52 28 68 30 182 2 116 13 228
29 308 5 24 0 46 -20 86 -27 55 -114 146 -140 146 -8 0 -33 16 -56 35 -23 19
-58 39 -78 44 -63 17 -273 23 -310 9z m323 -113 c23 -18 63 -43 89 -56 75 -35
86 -61 86 -205 0 -67 -5 -146 -12 -175 -12 -60 -13 -88 -3 -136 10 -47 -1 -82
-29 -89 -25 -6 -34 -20 -66 -102 -46 -122 -95 -189 -161 -223 -56 -28 -99 -24
-155 14 -63 42 -114 111 -156 211 -25 59 -42 84 -63 96 -38 21 -51 61 -35 109
10 31 9 51 -5 116 -23 100 -16 247 13 303 20 40 123 129 187 163 36 18 51 20
155 14 111 -7 116 -8 155 -40z"/>
<path d="M1978 2416 c-48 -17 -185 -116 -250 -180 -28 -28 -63 -75 -77 -105
-24 -53 -26 -65 -26 -216 1 -100 6 -180 14 -214 9 -36 10 -55 3 -60 -20 -12
-23 -57 -7 -130 23 -109 47 -157 87 -174 28 -12 41 -31 86 -121 127 -255 311
-355 490 -265 100 50 184 161 259 344 7 17 23 35 35 40 28 12 64 65 79 114 18
60 23 169 9 185 -9 12 -9 27 -1 65 6 28 14 101 17 163 5 71 12 121 21 135 25
38 -4 121 -76 216 -27 37 -53 56 -108 83 -40 18 -77 43 -83 55 -7 11 -31 29
-55 40 -79 35 -345 51 -417 25z m264 -77 c93 -10 106 -14 134 -40 17 -16 63
-46 103 -67 52 -26 82 -49 105 -80 l31 -44 -4 -176 c-2 -131 -8 -194 -22 -247
-18 -70 -18 -70 2 -99 21 -28 21 -29 4 -92 -16 -59 -19 -64 -45 -64 -36 0 -41
-7 -84 -124 -42 -117 -80 -179 -142 -236 -83 -77 -160 -90 -252 -43 -92 46
-139 110 -231 316 -37 82 -42 87 -70 87 -28 0 -31 4 -46 52 -18 61 -19 84 -4
93 24 15 26 51 7 115 -39 135 -32 337 15 430 26 51 159 164 241 205 57 29 100
31 258 14z"/>
<path d="M3272 2420 c-67 -27 -214 -154 -255 -219 -21 -35 -22 -45 -22 -281 0
-244 0 -245 27 -302 14 -31 37 -64 51 -72 13 -9 44 -53 68 -97 83 -156 174
-229 285 -229 121 0 213 74 287 233 23 48 49 90 59 93 9 3 30 31 45 62 25 50
28 69 29 157 1 130 12 260 26 307 23 77 -47 198 -146 253 -30 17 -72 43 -95
59 -32 23 -57 30 -118 37 -103 11 -212 10 -241 -1z m316 -108 c18 -15 59 -41
90 -58 82 -44 92 -69 92 -221 0 -74 -6 -148 -15 -188 -11 -46 -13 -71 -5 -85
12 -22 13 -80 2 -95 -4 -6 -19 -18 -33 -27 -16 -10 -35 -40 -49 -75 -57 -142
-104 -209 -171 -244 -54 -27 -97 -24 -150 10 -64 40 -114 105 -158 207 -28 66
-46 93 -67 105 -39 21 -51 58 -35 106 11 32 10 52 -4 122 -24 115 -17 254 14
305 24 38 130 127 189 158 33 17 50 19 152 13 105 -6 118 -9 148 -33z"/>
<path d="M364 1152 c-126 -64 -244 -127 -262 -140 -65 -48 -111 -176 -99 -279
7 -67 39 -92 177 -137 192 -62 328 -85 578 -97 133 -7 227 -8 233 -2 5 5 12
23 15 41 l7 32 -69 0 c-288 1 -659 59 -801 126 l-53 25 0 51 c0 71 18 123 57
163 22 22 106 70 247 140 117 58 221 114 230 124 23 25 17 65 -9 68 -11 1
-124 -50 -251 -115z"/>
<path d="M1167 1263 c-4 -3 -7 -17 -7 -30 0 -30 42 -57 275 -175 184 -93 201
-98 245 -68 23 16 -19 46 -193 133 -84 42 -181 92 -217 112 -64 34 -90 42
-103 28z"/>
<path d="M2906 1155 c-126 -63 -236 -120 -243 -128 -13 -12 -10 -17 19 -34
l34 -20 187 88 c233 109 272 134 272 174 0 23 -5 30 -20 32 -11 1 -123 -49
-249 -112z"/>
<path d="M3707 1263 c-16 -16 -5 -53 21 -71 15 -11 114 -65 221 -121 232 -122
245 -131 272 -184 28 -53 30 -154 5 -172 -34 -25 -234 -84 -352 -104 -66 -11
-210 -25 -320 -32 -109 -6 -202 -14 -207 -18 -4 -4 -2 -22 4 -40 l12 -33 156
7 c196 8 380 30 496 60 133 34 266 85 294 113 22 22 23 29 19 110 -11 177 -44
211 -362 375 -219 113 -245 125 -259 110z"/>
<path d="M1506 816 c-330 -166 -367 -193 -414 -296 -21 -44 -27 -75 -30 -161
-3 -64 0 -114 6 -125 24 -45 237 -126 446 -169 240 -49 352 -59 651 -59 210 0
315 4 420 18 358 45 666 142 704 220 21 44 1 216 -32 282 -49 97 -90 126 -407
290 -129 66 -249 129 -266 140 -27 15 -34 16 -48 5 -9 -7 -16 -24 -16 -37 0
-31 20 -43 307 -192 128 -66 252 -134 276 -151 72 -49 100 -108 112 -233 l7
-74 -80 -32 c-174 -69 -414 -124 -622 -143 -197 -18 -694 -6 -846 20 -211 36
-476 113 -526 153 -13 11 -14 26 -7 95 5 46 17 99 28 121 30 59 94 116 173
155 40 19 152 73 248 120 188 91 260 137 260 165 0 21 -19 43 -34 40 -6 -1
-146 -69 -310 -152z"/>
</g>
</svg>
