<?xml version="1.0" standalone="no"?>
<!DOCTYPE svg PUBLIC "-//W3C//DTD SVG 20010904//EN"
 "http://www.w3.org/TR/2001/REC-SVG-20010904/DTD/svg10.dtd">
<svg version="1.0" xmlns="http://www.w3.org/2000/svg"
 width="399.000000pt" height="437.000000pt" viewBox="0 0 399.000000 437.000000"
 preserveAspectRatio="xMidYMid meet">
<metadata>
Created by potrace 1.16, written by Peter Selinger 2001-2019
</metadata>
<g transform="translate(0.000000,437.000000) scale(0.100000,-0.100000)"
fill="#000000" stroke="none">
<path d="M1698 4356 c-65 -14 -120 -46 -303 -178 -158 -113 -235 -189 -299
-297 -45 -75 -49 -89 -57 -169 -4 -48 -13 -137 -19 -199 -13 -139 -1 -292 36
-445 l27 -111 -26 -19 c-14 -10 -28 -32 -32 -48 -9 -40 19 -190 56 -307 37
-114 83 -173 137 -173 16 0 34 -6 39 -12 6 -7 29 -65 53 -128 92 -248 182
-385 333 -504 187 -148 390 -176 586 -80 129 63 299 251 371 409 12 28 42 108
65 180 l42 130 36 6 c46 7 72 31 103 92 32 63 85 268 87 339 2 50 -1 60 -27
87 l-30 31 29 117 c25 104 29 141 33 314 4 196 4 197 28 208 21 9 24 18 24 59
0 27 -6 70 -14 96 -19 62 -156 266 -213 316 -44 38 -134 80 -173 80 -11 0 -55
33 -99 75 -43 41 -95 82 -116 91 -46 19 -398 54 -530 53 -49 0 -116 -6 -147
-13z m392 -122 c258 -23 233 -15 326 -105 77 -75 85 -81 159 -101 91 -25 119
-49 209 -178 71 -104 73 -107 47 -115 -30 -9 -34 -41 -22 -155 22 -205 8 -384
-44 -559 -33 -112 -32 -124 12 -160 l37 -31 -11 -54 c-17 -82 -53 -209 -63
-226 -7 -12 -14 -11 -44 5 -34 18 -36 18 -55 1 -11 -10 -41 -84 -71 -179 -62
-192 -104 -287 -164 -371 -63 -89 -164 -179 -243 -218 -62 -30 -75 -33 -163
-33 -91 0 -100 2 -175 39 -63 31 -99 58 -171 130 -113 114 -155 184 -233 396
-93 249 -111 273 -170 231 l-29 -21 -17 57 c-25 84 -66 246 -63 248 85 47 87
56 43 216 -34 123 -38 147 -42 299 -6 228 18 403 68 485 56 93 84 120 242 236
170 124 224 158 270 169 54 13 184 11 367 -6z"/>
<path d="M1264 1722 c-77 -55 -154 -98 -534 -295 -212 -110 -408 -215 -437
-234 -119 -78 -232 -233 -269 -369 -22 -81 -30 -369 -12 -404 19 -35 94 -77
249 -139 693 -275 1808 -355 2749 -195 306 52 636 148 835 243 144 69 139 61
143 252 4 180 -6 237 -64 358 -27 57 -53 93 -113 152 -91 90 -150 125 -561
342 -311 163 -449 241 -503 281 -18 13 -41 27 -53 30 -30 9 -66 -23 -66 -58 0
-55 57 -94 421 -287 546 -291 583 -312 649 -373 130 -121 161 -195 169 -396 4
-104 2 -139 -9 -152 -7 -9 -62 -37 -123 -61 -533 -216 -1191 -306 -2020 -278
-449 16 -784 67 -1178 181 -135 40 -300 101 -380 141 l-40 21 6 121 c10 195
53 311 152 412 66 68 83 78 437 261 409 212 572 301 613 338 45 40 55 86 26
115 -28 28 -40 27 -87 -7z"/>
</g>
</svg>
