<?xml version="1.0" standalone="no"?>
<!DOCTYPE svg PUBLIC "-//W3C//DTD SVG 20010904//EN"
 "http://www.w3.org/TR/2001/REC-SVG-20010904/DTD/svg10.dtd">
<svg version="1.0" xmlns="http://www.w3.org/2000/svg"
 width="336.000000pt" height="437.000000pt" viewBox="0 0 336.000000 437.000000"
 preserveAspectRatio="xMidYMid meet">
<metadata>
Created by potrace 1.16, written by Peter Selinger 2001-2019
</metadata>
<g transform="translate(0.000000,437.000000) scale(0.100000,-0.100000)"
fill="#000000" stroke="none">
<path d="M185 4341 c-59 -34 -135 -112 -164 -170 l-22 -41 3 -1948 3 -1947 27
-52 c52 -98 132 -155 244 -173 36 -6 606 -10 1442 -10 l1383 0 60 30 c80 41
130 88 168 159 l31 59 0 1936 0 1937 -29 57 c-35 69 -98 131 -168 166 l-52 26
-1438 0 -1438 0 -50 -29z m2960 -129 c22 -15 51 -48 65 -72 l25 -45 0 -1455 0
-1455 -23 -44 c-32 -60 -107 -132 -165 -159 l-47 -22 -1328 2 -1327 3 -45 23
c-64 33 -117 88 -151 154 l-29 57 0 1454 0 1454 30 41 c16 22 46 52 67 66 l38
26 1425 0 1425 -1 40 -27z m-2871 -3255 l61 -32 1337 -3 1338 -2 62 31 c33 17
86 55 115 85 30 30 56 54 57 54 2 0 1 -183 -2 -407 l-4 -408 -30 -45 c-16 -25
-46 -57 -66 -73 l-36 -27 -1426 2 -1426 3 -41 27 c-22 15 -51 44 -64 65 l-24
38 -3 414 -3 415 47 -53 c27 -30 73 -66 108 -84z"/>
<path d="M750 3443 l0 -177 43 42 42 42 165 -166 c91 -91 187 -184 213 -206
l48 -41 80 79 c43 43 79 85 79 93 0 8 -91 106 -202 218 l-202 203 44 45 44 45
-177 0 -177 0 0 -177z"/>
<path d="M2293 3573 l47 -48 -207 -207 -208 -208 88 -87 87 -88 208 208 208
207 44 -45 c24 -25 48 -45 52 -45 4 0 8 81 8 180 l0 180 -187 0 -188 0 48 -47z"/>
<path d="M1045 2110 l-210 -210 -42 42 -43 42 0 -182 0 -182 175 0 c96 0 175
3 175 7 0 4 -19 27 -42 50 l-42 43 202 203 c111 111 202 209 202 217 0 9 -37
52 -83 98 l-82 82 -210 -210z"/>
<path d="M2010 2225 l-85 -85 208 -208 207 -208 -45 -44 c-25 -24 -45 -48 -45
-52 0 -5 82 -7 183 -6 l182 3 3 183 c1 100 -1 182 -6 182 -4 0 -28 -20 -52
-45 l-44 -45 -206 205 c-113 113 -207 205 -210 205 -3 0 -44 -38 -90 -85z"/>
<path d="M868 683 l-3 -58 -57 -3 -58 -3 0 -184 0 -185 305 0 305 0 0 48 c0
27 3 110 7 185 l6 137 -66 0 -67 0 0 60 0 60 -185 0 -184 0 -3 -57z"/>
<path d="M2118 683 l-3 -58 -57 -3 -58 -3 0 -184 0 -185 305 0 305 0 0 124 c0
67 3 151 6 185 l7 61 -67 0 -66 0 0 60 0 60 -185 0 -184 0 -3 -57z"/>
</g>
</svg>
