<?xml version="1.0" standalone="no"?>
<!DOCTYPE svg PUBLIC "-//W3C//DTD SVG 20010904//EN"
 "http://www.w3.org/TR/2001/REC-SVG-20010904/DTD/svg10.dtd">
<svg version="1.0" xmlns="http://www.w3.org/2000/svg"
 width="437.000000pt" height="436.000000pt" viewBox="0 0 437.000000 436.000000"
 preserveAspectRatio="xMidYMid meet">
<metadata>
Created by potrace 1.16, written by Peter Selinger 2001-2019
</metadata>
<g transform="translate(0.000000,436.000000) scale(0.100000,-0.100000)"
fill="#000000" stroke="none">
<path d="M1291 4349 c-223 -27 -487 -136 -683 -281 -579 -427 -769 -1199 -457
-1855 196 -413 615 -731 1076 -819 119 -22 413 -23 539 0 211 36 470 150 640
280 26 20 53 36 62 36 8 0 47 -32 88 -72 l74 -71 0 -56 c0 -109 0 -109 289
-408 281 -291 599 -608 909 -906 202 -195 217 -204 325 -194 72 6 139 45 180
104 24 33 31 55 34 110 10 133 40 94 -540 680 -287 289 -593 592 -679 674
-143 134 -162 148 -208 158 -28 6 -70 11 -93 11 -38 0 -47 6 -114 72 -40 40
-73 79 -73 86 0 7 29 55 64 105 116 168 200 365 247 578 32 150 33 418 0 569
-45 210 -110 370 -214 528 -224 339 -563 571 -957 657 -90 19 -400 28 -509 14z
m437 -258 c187 -36 376 -118 512 -220 158 -119 316 -314 401 -495 111 -238
138 -584 64 -842 -34 -119 -129 -310 -204 -410 -180 -242 -457 -419 -753 -481
-105 -22 -369 -24 -478 -4 -178 32 -352 110 -505 224 -266 199 -432 456 -491
764 -22 111 -24 358 -5 463 28 156 97 324 189 465 60 90 206 243 303 315 143
107 339 192 514 223 120 22 334 21 453 -2z"/>
</g>
</svg>
