<?xml version="1.0" standalone="no"?>
<!DOCTYPE svg PUBLIC "-//W3C//DTD SVG 20010904//EN"
 "http://www.w3.org/TR/2001/REC-SVG-20010904/DTD/svg10.dtd">
<svg version="1.0" xmlns="http://www.w3.org/2000/svg"
 width="338.000000pt" height="436.000000pt" viewBox="0 0 338.000000 436.000000"
 preserveAspectRatio="xMidYMid meet">
<metadata>
Created by potrace 1.16, written by Peter Selinger 2001-2019
</metadata>
<g transform="translate(0.000000,436.000000) scale(0.100000,-0.100000)"
fill="#000000" stroke="none">
<path d="M200 4335 c-122 -64 -177 -147 -191 -288 -4 -51 -9 -924 -9 -1940 l0
-1848 30 -60 c40 -78 86 -128 152 -165 l53 -29 1450 0 1450 0 57 28 c66 32
117 87 159 169 l29 57 0 1848 c0 1016 -5 1889 -9 1940 -14 142 -70 227 -190
288 l-50 25 -1443 0 -1443 -1 -45 -24z m2947 -123 c67 -44 84 -73 94 -160 6
-45 9 -668 7 -1497 -3 -1359 -4 -1422 -22 -1457 -30 -61 -91 -122 -155 -157
l-61 -32 -1322 3 -1323 3 -52 24 c-67 30 -147 114 -165 172 -10 36 -13 322
-13 1514 l0 1470 25 43 c14 24 44 55 70 72 l45 29 1415 0 1415 1 42 -28z
m-2850 -3310 l58 -27 1335 0 1335 0 58 27 c34 16 80 50 113 83 l54 56 0 -394
0 -394 -41 -47 c-23 -26 -59 -56 -80 -66 -37 -20 -68 -20 -1439 -20 -1371 0
-1402 0 -1439 20 -21 10 -57 40 -80 66 l-41 47 0 394 0 394 54 -56 c33 -33 79
-67 113 -83z"/>
<path d="M1215 3719 c-141 -33 -319 -178 -388 -314 -52 -105 -67 -165 -67
-275 0 -131 12 -190 61 -290 78 -158 238 -287 405 -326 50 -12 99 -15 179 -11
132 5 214 29 305 88 l64 41 48 -52 c34 -36 52 -66 59 -98 11 -43 35 -70 293
-329 277 -278 282 -283 322 -283 57 0 105 34 124 88 13 39 13 45 -4 76 -23 43
-285 316 -443 462 -103 95 -128 113 -164 119 -32 6 -56 20 -94 56 -47 46 -49
49 -36 71 118 187 149 375 92 558 -62 196 -235 365 -427 415 -65 17 -263 19
-329 4z m369 -152 c151 -72 258 -213 286 -378 31 -181 -59 -380 -221 -488 -93
-62 -179 -85 -299 -79 -87 4 -107 9 -175 41 -221 106 -338 345 -280 572 25 93
53 145 124 218 117 122 207 159 377 154 103 -3 116 -6 188 -40z"/>
<path d="M1056 3437 c-44 -52 -116 -163 -116 -179 0 -4 126 -8 280 -8 l280 0
0 120 0 120 -199 0 -199 0 -46 -53z"/>
<path d="M1130 2870 l0 -120 264 0 263 0 45 48 c49 52 93 122 103 165 l7 27
-341 0 -341 0 0 -120z"/>
<path d="M380 3311 l0 -61 129 0 129 0 12 51 c7 27 9 53 6 57 -4 3 -68 8 -142
10 l-134 4 0 -61z"/>
<path d="M2250 3310 l0 -60 375 0 375 0 0 60 0 60 -375 0 -375 0 0 -60z"/>
<path d="M380 2930 l0 -60 60 0 60 0 0 60 0 60 -60 0 -60 0 0 -60z"/>
<path d="M2202 2983 c-91 -4 -91 -4 -105 -80 l-6 -33 144 0 145 0 0 60 0 60
-47 -2 c-27 -1 -85 -4 -131 -5z"/>
<path d="M2630 2930 l0 -60 185 0 185 0 0 60 0 60 -185 0 -185 0 0 -60z"/>
<path d="M380 2560 l0 -60 282 0 c243 0 280 2 268 14 -8 8 -39 35 -69 60 l-55
46 -213 0 -213 0 0 -60z"/>
<path d="M2295 2560 l59 -60 323 0 323 0 0 60 0 60 -382 0 -382 0 59 -60z"/>
<path d="M380 2180 l0 -60 560 0 560 0 0 60 0 60 -560 0 -560 0 0 -60z"/>
<path d="M1750 2180 l0 -60 137 0 137 0 -59 60 -59 60 -78 0 -78 0 0 -60z"/>
<path d="M2670 2180 l52 -60 139 0 139 0 0 60 0 60 -191 0 -191 0 52 -60z"/>
<path d="M380 1810 l0 -60 250 0 250 0 0 60 0 60 -250 0 -250 0 0 -60z"/>
<path d="M1130 1810 l0 -60 500 0 500 0 0 60 0 60 -500 0 -500 0 0 -60z"/>
<path d="M2880 1810 l0 -60 60 0 60 0 0 60 0 60 -60 0 -60 0 0 -60z"/>
<path d="M455 606 c-43 -19 -66 -49 -72 -94 -6 -41 12 -87 43 -113 16 -13 16
-12 6 8 -31 57 7 123 71 123 64 0 99 -74 61 -129 -16 -22 -16 -23 3 -12 54 29
71 125 31 176 -21 26 -74 55 -100 55 -7 -1 -26 -7 -43 -14z"/>
</g>
</svg>
