<?xml version="1.0" standalone="no"?>
<!DOCTYPE svg PUBLIC "-//W3C//DTD SVG 20010904//EN"
 "http://www.w3.org/TR/2001/REC-SVG-20010904/DTD/svg10.dtd">
<svg version="1.0" xmlns="http://www.w3.org/2000/svg"
 width="423.000000pt" height="451.000000pt" viewBox="0 0 423.000000 451.000000"
 preserveAspectRatio="xMidYMid meet">
<metadata>
Created by potrace 1.16, written by Peter Selinger 2001-2019
</metadata>
<g transform="translate(0.000000,451.000000) scale(0.100000,-0.100000)"
fill="#000000" stroke="none">
<path d="M1395 4488 c-54 -27 -95 -66 -111 -105 -11 -26 -14 -152 -14 -676 l0
-644 -302 -471 -303 -471 -257 -3 -256 -3 -44 -30 c-23 -17 -58 -53 -76 -80
l-33 -49 3 -901 c3 -1010 -4 -924 80 -1001 l44 -41 139 -6 c213 -11 1182 -8
1249 3 70 11 121 47 151 106 19 37 20 62 23 526 l3 488 424 0 424 0 3 -488 c3
-464 4 -489 23 -526 31 -62 81 -95 158 -107 41 -7 302 -9 709 -7 603 3 645 4
677 21 42 24 77 61 102 109 18 36 19 71 18 860 0 453 -4 862 -8 911 -7 76 -12
92 -38 125 -16 20 -49 48 -73 61 -41 23 -53 24 -298 30 l-255 6 -299 465 -298
465 0 643 c0 725 5 675 -79 757 -38 36 -47 40 -114 47 -39 3 -355 7 -702 7
-618 0 -631 0 -670 -21z m1397 -140 l27 -18 1 -733 1 -733 -22 -20 c-20 -18
-43 -19 -684 -19 -638 0 -664 1 -684 19 -21 19 -21 20 -21 749 l0 731 22 23
22 24 656 -3 c602 -3 658 -4 682 -20z m-677 -1589 c370 0 679 3 688 7 15 5 17
-3 16 -67 0 -102 -15 -141 -57 -151 -19 -5 -316 -8 -660 -6 -535 3 -631 5
-657 18 -30 15 -30 15 -33 114 -2 89 -1 98 14 92 10 -4 319 -7 689 -7z m-845
-74 c0 -150 41 -236 128 -267 29 -10 184 -13 722 -13 l685 0 42 22 c78 42 102
94 112 248 l6 90 208 -308 c115 -170 211 -315 214 -323 4 -12 -45 -14 -328
-14 -205 0 -349 -4 -372 -11 -49 -13 -110 -68 -136 -123 -20 -40 -21 -60 -21
-379 l0 -337 -402 0 c-236 0 -409 4 -418 10 -13 8 -16 62 -20 347 -6 369 -8
380 -66 435 -54 50 -66 52 -429 56 -187 2 -344 7 -349 12 -8 8 402 629 417
630 4 0 7 -34 7 -75z m257 -727 l23 -21 0 -732 c0 -731 0 -732 -21 -751 -20
-18 -48 -19 -682 -22 l-660 -3 -23 22 -24 22 0 731 0 730 22 23 21 23 661 0
660 0 23 -22z m2526 -1 l28 -18 -3 -734 c-3 -690 -4 -735 -21 -752 -17 -17
-58 -18 -682 -18 -652 0 -664 0 -679 20 -23 32 -28 210 -24 867 3 690 -4 637
91 649 28 4 324 6 657 5 565 -1 608 -2 633 -19z m-2503 -1673 c0 -67 -4 -86
-21 -108 l-20 -26 -665 0 -664 0 -20 32 c-15 25 -20 51 -20 108 l0 75 705 0
705 0 0 -81z m2528 -12 c-2 -56 -8 -95 -17 -105 -12 -16 -69 -17 -636 -17
-631 0 -718 4 -742 37 -8 10 -13 48 -13 95 l0 78 706 0 706 0 -4 -88z"/>
<path d="M1803 4055 c-63 -28 -131 -90 -173 -156 l-32 -49 -64 0 -64 0 0 -39
0 -40 53 -3 52 -3 3 -67 3 -68 -61 0 -60 0 0 -35 0 -35 69 0 c68 0 69 0 82
-32 19 -47 117 -142 179 -173 50 -25 65 -28 161 -28 99 0 112 3 174 32 37 17
71 31 76 31 5 0 15 -15 23 -34 8 -19 68 -89 133 -155 103 -106 122 -121 151
-121 25 0 35 6 44 25 9 21 7 30 -17 66 -42 60 -233 239 -256 239 -30 0 -33 24
-9 69 40 79 44 81 190 81 l130 0 0 35 0 35 -124 0 -124 0 -4 88 c-4 70 -10 98
-34 147 -36 73 -114 153 -185 188 -48 24 -64 27 -158 26 -89 0 -114 -4 -158
-24z m276 -66 c61 -27 105 -62 131 -104 l22 -35 -26 -31 c-41 -48 -33 -80 26
-110 38 -20 40 -22 33 -57 -18 -97 -85 -186 -172 -228 -47 -24 -69 -28 -142
-28 -65 -1 -95 4 -123 18 -58 28 -121 89 -153 147 -27 48 -30 63 -29 139 0 55
6 97 17 120 74 165 257 240 416 169z"/>
<path d="M1818 3841 c-50 -11 -68 -28 -68 -66 0 -56 26 -69 148 -73 59 -2 123
0 142 5 61 16 79 97 27 124 -26 15 -196 21 -249 10z"/>
<path d="M1922 3623 c-7 -3 -19 -18 -27 -33 -18 -36 -5 -72 32 -89 56 -25 162
-5 177 34 22 59 -20 95 -108 94 -33 0 -67 -3 -74 -6z"/>
<path d="M2370 3840 c-11 -7 -12 -15 -4 -37 l9 -28 175 0 175 0 3 24 c7 45
-18 51 -187 51 -86 0 -163 -4 -171 -10z"/>
<path d="M561 1670 c-74 -27 -149 -86 -197 -156 l-40 -59 -62 -3 -62 -3 0 -34
0 -35 53 0 53 0 0 -70 0 -70 -58 0 -58 0 0 -35 0 -35 68 0 67 0 24 -45 c35
-66 129 -149 198 -175 92 -35 196 -32 300 10 87 34 113 34 113 -1 0 -28 250
-279 278 -279 28 0 52 26 52 58 0 20 -27 53 -119 144 -66 65 -136 125 -155
133 -20 9 -36 19 -36 24 0 5 16 37 36 70 l36 61 134 0 134 0 0 35 0 35 -124 0
-123 0 -6 83 c-8 113 -29 167 -94 238 -80 85 -161 123 -273 127 -65 2 -98 -2
-139 -18z m264 -80 c24 -12 67 -47 95 -77 l51 -56 -32 -33 c-29 -30 -32 -37
-23 -61 5 -17 24 -35 47 -46 30 -15 37 -24 37 -48 0 -68 -66 -171 -144 -223
-105 -72 -235 -69 -349 7 -50 34 -68 54 -94 105 -30 58 -33 72 -33 150 1 123
43 205 136 263 88 54 220 62 309 19z"/>
<path d="M506 1429 c-29 -23 -35 -64 -12 -95 13 -17 30 -19 150 -22 133 -4
135 -4 160 22 28 27 32 52 13 77 -24 32 -56 39 -170 39 -100 0 -117 -3 -141
-21z"/>
<path d="M665 1228 c-48 -26 -59 -74 -25 -108 16 -16 33 -20 79 -20 75 0 109
13 117 44 9 36 -4 64 -36 81 -34 17 -106 19 -135 3z"/>
<path d="M1095 1423 c3 -15 12 -31 18 -35 7 -4 87 -8 180 -8 l167 0 0 35 0 35
-186 0 -186 0 7 -27z"/>
<path d="M3103 1672 c-92 -33 -182 -110 -221 -189 -15 -32 -17 -33 -84 -33
l-68 0 0 -35 0 -35 55 0 55 0 0 -70 0 -70 -55 0 -55 0 0 -35 0 -35 58 0 c67 0
71 -2 105 -57 39 -62 101 -117 172 -153 58 -29 71 -32 159 -32 87 0 103 3 162
31 84 39 100 39 108 1 7 -40 229 -265 270 -276 39 -9 71 23 62 62 -11 41 -235
262 -275 270 -40 8 -39 23 5 95 l37 59 133 0 134 0 0 35 0 35 -125 0 -125 0 0
53 c0 160 -92 304 -236 369 -69 30 -199 35 -271 10z m257 -82 c59 -30 130 -98
130 -124 0 -11 -9 -32 -20 -46 -11 -14 -20 -33 -20 -43 0 -25 44 -67 71 -67
20 0 21 -4 16 -45 -14 -102 -87 -198 -184 -242 -78 -36 -187 -37 -258 -3 -64
31 -124 91 -155 155 -33 69 -34 188 -2 260 40 87 117 151 209 175 58 14 165 4
213 -20z"/>
<path d="M3055 1438 c-50 -29 -57 -67 -20 -103 23 -24 30 -25 148 -25 111 0
127 2 151 21 33 26 34 62 1 94 -23 24 -30 25 -142 25 -70 0 -126 -5 -138 -12z"/>
<path d="M3194 1228 c-22 -10 -44 -47 -44 -73 0 -31 50 -55 115 -55 48 0 68 5
89 21 40 32 31 80 -21 107 -26 15 -110 14 -139 0z"/>
<path d="M3630 1421 c0 -17 6 -31 16 -35 9 -3 92 -6 185 -6 l169 0 0 35 0 35
-185 0 -185 0 0 -29z"/>
</g>
</svg>
