<?xml version="1.0" standalone="no"?>
<!DOCTYPE svg PUBLIC "-//W3C//DTD SVG 20010904//EN"
 "http://www.w3.org/TR/2001/REC-SVG-20010904/DTD/svg10.dtd">
<svg version="1.0" xmlns="http://www.w3.org/2000/svg"
 width="450.000000pt" height="281.000000pt" viewBox="0 0 450.000000 281.000000"
 preserveAspectRatio="xMidYMid meet">
<metadata>
Created by potrace 1.16, written by Peter Selinger 2001-2019
</metadata>
<g transform="translate(0.000000,281.000000) scale(0.100000,-0.100000)"
fill="#000000" stroke="none">
<path d="M2105 2804 c-170 -25 -300 -66 -435 -135 -352 -180 -604 -525 -669
-915 l-12 -71 -147 -6 c-270 -11 -427 -74 -596 -242 -102 -100 -180 -237 -223
-390 -22 -82 -28 -287 -9 -373 65 -305 309 -560 621 -648 55 -15 179 -17 1405
-21 1483 -5 1636 -2 1767 42 223 75 402 211 527 398 65 97 97 166 133 286 24
78 26 102 27 256 l1 170 -39 113 c-52 151 -120 263 -233 382 -196 206 -402
304 -668 317 l-111 6 -38 84 c-71 152 -131 239 -260 368 -129 130 -193 178
-321 242 -186 94 -337 132 -545 137 -80 3 -158 2 -175 0z m280 -145 c419 -51
759 -321 925 -735 l43 -107 96 6 c181 10 333 -24 481 -106 106 -59 249 -205
313 -317 198 -353 137 -763 -152 -1032 -95 -88 -198 -149 -329 -195 l-97 -34
-1470 4 c-1110 3 -1483 7 -1525 17 -30 6 -95 32 -145 58 -72 36 -108 63 -177
132 -73 73 -93 102 -131 181 -58 122 -69 170 -68 309 0 213 57 355 196 495
171 171 335 223 620 196 75 -7 138 -12 140 -9 2 2 13 65 24 140 44 301 144
504 342 693 248 236 575 345 914 304z"/>
<path d="M1955 1606 c-4 -40 -5 -81 -4 -91 3 -12 104 -66 326 -174 177 -86
322 -159 323 -162 0 -3 -146 -77 -325 -165 l-325 -158 0 -93 c0 -51 2 -93 5
-93 3 0 193 94 423 209 l419 209 -5 89 c-2 48 -5 89 -6 89 0 1 -186 94 -413
208 l-411 205 -7 -73z"/>
</g>
</svg>
