<?xml version="1.0" standalone="no"?>
<!DOCTYPE svg PUBLIC "-//W3C//DTD SVG 20010904//EN"
 "http://www.w3.org/TR/2001/REC-SVG-20010904/DTD/svg10.dtd">
<svg version="1.0" xmlns="http://www.w3.org/2000/svg"
 width="336.000000pt" height="436.000000pt" viewBox="0 0 336.000000 436.000000"
 preserveAspectRatio="xMidYMid meet">
<metadata>
Created by potrace 1.16, written by Peter Selinger 2001-2019
</metadata>
<g transform="translate(0.000000,436.000000) scale(0.100000,-0.100000)"
fill="#000000" stroke="none">
<path d="M195 4333 c-82 -42 -120 -79 -159 -152 l-36 -69 0 -1936 0 -1937 21
-42 c34 -67 82 -119 145 -157 l58 -35 1449 -3 1448 -3 60 33 c67 35 118 88
155 161 l25 47 -3 1943 -3 1942 -27 50 c-30 58 -107 134 -166 164 l-41 21
-1438 0 -1438 -1 -50 -26z m2947 -128 c30 -22 57 -54 73 -85 l25 -49 0 -1461
0 -1461 -26 -52 c-35 -70 -87 -123 -157 -158 l-57 -29 -1328 2 -1327 3 -53 29
c-63 35 -112 87 -147 155 l-25 50 0 1423 c0 864 4 1450 10 1493 9 65 13 73 56
112 25 24 60 47 77 52 19 5 618 9 1432 10 l1400 1 47 -35z m-2969 -3219 c29
-29 81 -68 115 -85 l61 -31 1331 0 1331 0 60 30 c33 17 82 53 110 79 32 31 52
44 55 36 3 -7 4 -178 2 -381 -3 -403 -2 -398 -65 -455 -61 -57 32 -54 -1433
-57 -745 -2 -1389 0 -1430 4 -73 6 -77 8 -121 53 -30 29 -51 60 -57 86 -9 36
-23 775 -14 775 1 0 27 -24 55 -54z"/>
<path d="M1122 3094 l3 -135 405 -197 c223 -109 439 -214 480 -233 l75 -36
-482 -242 -483 -242 0 -129 c0 -72 4 -130 8 -130 5 0 284 137 620 305 l612
304 0 129 0 128 -615 307 c-338 169 -617 307 -620 307 -3 0 -4 -61 -3 -136z"/>
<path d="M429 595 c-57 -31 -69 -134 -21 -183 15 -15 24 -23 20 -18 -5 6 -8
31 -8 57 0 38 5 51 22 63 60 42 133 0 126 -73 l-3 -40 22 21 c18 17 23 32 23
71 0 42 -5 54 -34 83 -28 28 -41 34 -77 34 -24 -1 -56 -7 -70 -15z"/>
</g>
</svg>
