<?xml version="1.0" standalone="no"?>
<!DOCTYPE svg PUBLIC "-//W3C//DTD SVG 20010904//EN"
 "http://www.w3.org/TR/2001/REC-SVG-20010904/DTD/svg10.dtd">
<svg version="1.0" xmlns="http://www.w3.org/2000/svg"
 width="386.000000pt" height="524.000000pt" viewBox="0 0 386.000000 524.000000"
 preserveAspectRatio="xMidYMid meet">
<metadata>
Created by potrace 1.16, written by Peter Selinger 2001-2019
</metadata>
<g transform="translate(0.000000,524.000000) scale(0.100000,-0.100000)"
fill="#000000" stroke="none">
<path d="M562 5217 c-58 -31 -126 -99 -152 -153 -12 -24 -26 -74 -30 -110 -5
-36 -10 -68 -13 -70 -3 -3 -35 -9 -71 -15 -120 -17 -215 -86 -270 -196 l-26
-52 0 -1936 0 -1936 25 -50 c33 -64 83 -119 146 -159 l49 -32 995 -6 c547 -3
995 -8 995 -12 0 -16 104 -165 148 -212 332 -355 887 -371 1240 -34 106 100
192 242 237 389 27 84 27 93 22 260 -5 188 -15 233 -72 347 l-33 65 -7 1850
-7 1850 -25 49 c-30 59 -106 137 -161 165 l-41 21 -1453 0 -1453 -1 -43 -22z
m2971 -137 c25 -22 55 -56 67 -75 l21 -33 -3 -1474 -3 -1473 -21 -46 c-12 -26
-39 -65 -60 -89 -37 -41 -118 -90 -149 -90 -13 0 -15 149 -15 1405 l0 1406
-29 57 c-41 81 -90 134 -159 170 l-60 32 -1288 0 c-709 0 -1300 3 -1313 7 -22
5 -23 10 -19 60 6 66 45 127 103 160 l40 23 1421 0 1421 0 46 -40z m-392 -362
c23 -18 55 -49 70 -68 l28 -35 1 -1445 c1 -795 1 -1448 1 -1451 -1 -4 -27 0
-58 7 -32 8 -111 14 -176 14 -253 0 -419 -65 -617 -244 l-95 -86 -805 1 c-936
0 -1136 6 -1196 37 -45 23 -113 92 -141 143 -17 32 -18 99 -21 1484 -2 915 1
1474 7 1514 12 74 31 99 105 136 l50 25 1402 0 1402 0 43 -32z m480 -3008 c0
-111 -2 -205 -5 -207 -3 -3 -24 10 -47 28 -23 19 -77 57 -118 84 -75 50 -76
50 -76 94 0 42 1 43 46 60 61 24 132 74 165 117 15 19 29 33 31 31 2 -3 4 -96
4 -207z m-473 -105 c48 -10 116 -35 181 -67 178 -88 310 -239 378 -433 26 -74
28 -92 28 -230 0 -130 -3 -159 -23 -219 -80 -239 -243 -409 -467 -489 -199
-70 -405 -55 -595 44 -146 76 -251 183 -326 334 -199 401 13 898 442 1039 118
38 255 46 382 21z m-2868 -194 l56 -30 966 -7 967 -7 -40 -78 c-75 -151 -92
-216 -97 -384 -2 -106 0 -170 10 -217 l15 -68 -771 1 c-424 0 -855 4 -957 7
-183 7 -186 7 -222 35 -76 58 -76 58 -77 478 0 206 -1 378 0 384 0 5 21 -11
48 -37 26 -25 72 -60 102 -77z"/>
<path d="M2792 1474 c-123 -33 -228 -107 -271 -193 -41 -80 -51 -152 -50 -381
1 -118 4 -225 7 -237 7 -22 8 -22 50 15 l44 37 -16 61 c-30 118 -9 242 44 259
36 11 87 -4 119 -35 34 -34 48 -72 55 -150 3 -30 5 -56 6 -56 0 -1 25 -5 57
-9 31 -4 62 -9 70 -12 10 -4 13 10 13 62 0 88 16 137 57 180 45 47 93 55 149
26 73 -39 114 -118 114 -221 0 -47 -5 -65 -31 -104 -28 -42 -30 -49 -19 -76 8
-19 10 -47 5 -76 -6 -40 -3 -49 16 -70 13 -14 45 -71 71 -127 26 -56 54 -103
61 -105 18 -4 154 103 188 147 l25 32 -34 117 c-29 102 -34 139 -42 287 -9
187 -24 263 -73 364 -62 130 -206 239 -355 270 -72 15 -196 13 -260 -5z"/>
<path d="M2607 902 c-20 -21 -23 -93 -6 -140 l10 -30 45 15 c76 26 95 90 31
109 -27 7 -32 14 -30 37 2 32 -25 37 -50 9z"/>
<path d="M3025 898 c-28 -25 -42 -80 -31 -123 5 -18 20 -32 48 -45 37 -17 45
-17 70 -4 35 18 48 43 48 93 0 39 -1 41 -31 41 -29 0 -31 2 -27 30 4 27 2 30
-23 30 -15 0 -40 -10 -54 -22z"/>
<path d="M2715 726 c-106 -34 -205 -109 -205 -157 0 -33 29 -79 58 -90 44 -18
234 -23 304 -9 34 6 92 25 127 41 35 16 65 29 67 29 2 0 4 -9 4 -20 0 -14 -15
-27 -50 -45 -78 -40 -154 -55 -272 -55 -59 0 -108 -4 -108 -9 0 -4 31 -22 68
-40 136 -62 238 -36 369 94 55 55 73 80 79 110 6 36 4 41 -26 67 -18 15 -65
39 -104 53 -127 45 -233 56 -311 31z"/>
<path d="M2490 434 c0 -44 4 -54 35 -84 l35 -34 0 45 c0 38 -6 52 -35 85 l-34
39 -1 -51z"/>
<path d="M433 1100 c-41 -25 -53 -48 -53 -104 0 -37 6 -52 30 -78 l30 -33 -15
32 c-14 28 -14 36 -1 67 23 56 82 69 128 29 25 -22 31 -61 14 -94 -18 -36 -5
-38 23 -4 45 58 32 142 -28 182 -42 28 -86 29 -128 3z"/>
</g>
</svg>
