<?xml version="1.0" standalone="no"?>
<!DOCTYPE svg PUBLIC "-//W3C//DTD SVG 20010904//EN"
 "http://www.w3.org/TR/2001/REC-SVG-20010904/DTD/svg10.dtd">
<svg version="1.0" xmlns="http://www.w3.org/2000/svg"
 width="386.000000pt" height="523.000000pt" viewBox="0 0 386.000000 523.000000"
 preserveAspectRatio="xMidYMid meet">
<metadata>
Created by potrace 1.16, written by Peter Selinger 2001-2019
</metadata>
<g transform="translate(0.000000,523.000000) scale(0.100000,-0.100000)"
fill="#000000" stroke="none">
<path d="M565 5209 c-59 -31 -141 -115 -165 -170 -11 -27 -23 -75 -27 -108 -6
-59 -6 -61 -39 -66 -19 -3 -51 -8 -71 -11 -90 -14 -188 -93 -237 -192 l-27
-53 3 -1937 3 -1937 22 -47 c27 -60 97 -130 162 -162 l50 -26 424 0 c233 0
675 -3 982 -7 l557 -6 36 -56 c126 -200 276 -320 497 -399 57 -20 94 -26 206
-29 159 -6 252 6 357 47 112 43 195 95 284 179 118 111 199 242 250 401 20 67
23 94 23 245 -1 167 -1 171 -34 260 -18 50 -43 110 -56 135 l-22 45 -6 1842
-6 1842 -26 51 c-33 64 -90 122 -154 155 l-50 25 -1448 0 c-1442 -1 -1448 -1
-1488 -21z m2889 -109 c66 -11 111 -45 143 -109 17 -34 18 -111 16 -1509 -3
-1424 -4 -1474 -22 -1510 -32 -62 -98 -129 -157 -158 -30 -15 -56 -25 -58 -23
-2 2 -7 641 -11 1419 l-7 1415 -31 58 c-36 68 -76 106 -157 147 l-59 30 -1168
0 c-642 0 -1233 3 -1311 7 l-144 6 7 46 c10 64 37 113 87 155 l43 36 1385 0
c849 0 1408 -4 1444 -10z m-364 -370 c44 -12 105 -62 128 -103 16 -29 17 -97
22 -797 3 -421 4 -1070 1 -1443 l-4 -678 -23 5 c-66 17 -220 25 -311 16 -197
-19 -362 -95 -513 -237 l-89 -84 -978 3 -978 3 -51 27 c-69 36 -139 116 -155
176 -9 36 -13 389 -16 1510 -4 1445 -4 1463 16 1495 24 40 67 80 106 100 27
15 173 16 1420 17 872 0 1403 -4 1425 -10z m530 -3036 c0 -105 -3 -193 -6
-197 -4 -3 -25 9 -48 27 -22 18 -76 56 -118 85 -75 50 -78 53 -78 91 0 39 1
40 76 76 50 25 89 53 117 84 27 30 45 43 49 36 4 -6 8 -97 8 -202z m-450 -100
c144 -33 309 -140 405 -262 57 -71 120 -196 142 -282 23 -90 23 -283 0 -370
-58 -216 -207 -394 -413 -491 -111 -53 -166 -63 -329 -63 -131 0 -145 1 -222
30 -109 41 -183 86 -266 164 -161 151 -240 331 -239 550 0 171 48 312 154 453
93 125 252 229 410 268 93 23 269 24 358 3z m-2885 -195 l50 -24 940 -6 c517
-4 952 -7 967 -8 l27 -1 -27 -47 c-37 -63 -78 -164 -96 -233 -30 -118 -29
-296 0 -432 l6 -28 -923 0 c-614 0 -937 4 -962 11 -44 12 -101 59 -125 103
-15 27 -17 77 -20 420 l-4 388 59 -59 c32 -33 81 -70 108 -84z"/>
<path d="M2783 1290 c-18 -4 -39 -13 -47 -19 -15 -12 -103 -267 -95 -275 2 -2
33 3 69 10 75 17 141 12 205 -16 34 -15 47 -17 50 -7 3 6 23 69 44 139 27 91
35 130 27 136 -43 34 -175 51 -253 32z"/>
<path d="M3099 1078 c-17 -57 -34 -120 -37 -140 -4 -37 -3 -39 39 -58 54 -24
154 -26 226 -5 l50 15 37 122 c20 68 36 129 36 137 0 10 -9 12 -37 7 -107 -19
-132 -18 -201 3 -39 11 -73 21 -76 21 -3 0 -19 -46 -37 -102z"/>
<path d="M2644 894 l-41 -15 -33 -122 c-18 -67 -35 -127 -37 -133 -3 -9 24
-10 100 -7 86 5 114 2 156 -13 32 -11 54 -14 60 -8 14 14 83 254 77 269 -15
39 -199 58 -282 29z"/>
<path d="M2996 718 c-38 -126 -49 -176 -42 -193 21 -56 262 -61 306 -7 17 20
86 249 78 257 -3 3 -25 1 -49 -4 -69 -16 -144 -13 -201 9 -29 11 -56 20 -60
20 -4 0 -18 -37 -32 -82z"/>
<path d="M454 1106 c-17 -8 -41 -26 -53 -41 -41 -54 -40 -101 5 -155 30 -35
45 -34 20 2 -22 31 -20 52 10 87 19 23 34 31 59 31 25 0 40 -8 59 -31 30 -35
32 -56 10 -87 -25 -35 -10 -37 19 -2 36 43 44 91 21 131 -36 61 -97 87 -150
65z"/>
</g>
</svg>
