<?xml version="1.0" standalone="no"?>
<!DOCTYPE svg PUBLIC "-//W3C//DTD SVG 20010904//EN"
 "http://www.w3.org/TR/2001/REC-SVG-20010904/DTD/svg10.dtd">
<svg version="1.0" xmlns="http://www.w3.org/2000/svg"
 width="374.000000pt" height="474.000000pt" viewBox="0 0 374.000000 474.000000"
 preserveAspectRatio="xMidYMid meet">
<metadata>
Created by potrace 1.16, written by Peter Selinger 2001-2019
</metadata>
<g transform="translate(0.000000,474.000000) scale(0.100000,-0.100000)"
fill="#000000" stroke="none">
<path d="M635 4731 c-126 -17 -238 -135 -260 -276 -13 -86 -10 -82 -72 -88
-112 -12 -214 -81 -277 -190 l-27 -45 3 -1948 3 -1949 21 -46 c26 -57 85 -117
150 -155 l49 -29 1453 -3 1454 -3 53 31 c30 17 72 51 94 77 41 46 81 134 81
177 0 13 3 37 6 53 6 29 9 31 68 35 118 10 223 83 280 197 l26 50 0 1936 0
1936 -26 50 c-33 67 -97 134 -159 170 l-50 29 -1410 -2 c-775 0 -1432 -4
-1460 -7z m2874 -136 c19 -11 48 -37 65 -58 l31 -39 3 -1499 2 -1500 -25 -44
c-46 -78 -146 -155 -202 -155 -17 0 -18 21 -15 382 1 211 -1 849 -5 1418 l-8
1035 -25 48 c-30 59 -101 127 -168 161 l-51 26 -1307 0 -1306 0 4 59 c7 99 74
170 172 182 28 4 670 6 1426 5 1356 -1 1375 -1 1409 -21z m-374 -377 c28 -19
62 -53 78 -80 l29 -46 -2 -1478 -1 -1478 -26 -48 c-33 -60 -95 -118 -163 -153
l-51 -26 -1322 3 -1322 3 -57 28 c-65 32 -116 85 -153 156 l-25 50 1 1378 c0
758 4 1428 8 1490 9 126 17 144 81 188 32 23 57 30 113 35 40 4 677 8 1417 9
l1345 1 50 -32z m475 -3200 c-6 -440 -4 -430 -81 -483 -34 -24 -143 -55 -153
-44 -3 3 -6 173 -6 378 l-1 373 80 39 c55 27 92 53 118 84 21 24 40 44 43 45
3 0 3 -177 0 -392z m-3434 -33 c32 -34 76 -66 111 -83 l58 -27 1333 -3 1332
-2 58 27 c31 15 83 54 115 85 l58 57 -3 -393 -3 -392 -25 -37 c-14 -21 -43
-50 -64 -65 l-39 -27 -1351 -3 c-743 -2 -1389 0 -1436 4 -85 6 -85 6 -131 53
-30 29 -51 60 -57 86 -10 37 -22 775 -13 775 2 0 27 -25 57 -55z"/>
<path d="M471 612 c-55 -9 -101 -62 -101 -117 0 -32 21 -74 50 -100 l23 -20
-17 34 c-31 58 4 121 67 121 49 0 80 -37 75 -89 l-3 -40 22 21 c35 33 32 107
-4 148 -30 32 -72 48 -112 42z"/>
</g>
</svg>
